<mxfile host="app.diagrams.net" agent="Mozilla/5.0 (Macintosh; Intel Mac OS X 10_15_7) AppleWebKit/537.36 (KHTML, like Gecko) Chrome/134.0.0.0 Safari/537.36" version="26.2.4">
  <diagram name="Page-1" id="7YXeCxGNXT-ABpu1eDNc">
    <mxGraphModel dx="7629" dy="3217" grid="0" gridSize="10" guides="1" tooltips="1" connect="1" arrows="1" fold="1" page="1" pageScale="1" pageWidth="1100" pageHeight="850" math="0" shadow="0">
      <root>
        <mxCell id="0" />
        <mxCell id="1" parent="0" />
        <mxCell id="nvV4u8w8GEPqKtK5y-YX-155" style="edgeStyle=orthogonalEdgeStyle;shape=connector;curved=1;rounded=0;hachureGap=4;orthogonalLoop=1;jettySize=auto;html=1;strokeColor=#FF3333;align=center;verticalAlign=middle;fontFamily=Architects Daughter;fontSource=https%3A%2F%2Ffonts.googleapis.com%2Fcss%3Ffamily%3DArchitects%2BDaughter;fontSize=11;fontColor=default;labelBackgroundColor=default;endArrow=classic;strokeWidth=4;movable=0;resizable=0;rotatable=0;deletable=0;editable=0;locked=1;connectable=0;" parent="1" source="nvV4u8w8GEPqKtK5y-YX-1" target="nvV4u8w8GEPqKtK5y-YX-2" edge="1">
          <mxGeometry relative="1" as="geometry" />
        </mxCell>
        <mxCell id="nvV4u8w8GEPqKtK5y-YX-1" value="&lt;h1 style=&quot;margin-top: 0px;&quot;&gt;Travellers Inc.&lt;/h1&gt;&lt;p&gt;Technical challenges&lt;/p&gt;&lt;p&gt;&lt;/p&gt;&lt;ul&gt;&lt;li&gt;Legacy platforms&lt;/li&gt;&lt;li&gt;Full-stack disconnected products&lt;/li&gt;&lt;li&gt;Bounded context issues&lt;/li&gt;&lt;/ul&gt;&lt;div&gt;&lt;br&gt;&lt;/div&gt;&lt;p&gt;&lt;/p&gt;" style="text;html=1;whiteSpace=wrap;overflow=hidden;rounded=0;fontFamily=Architects Daughter;fontSource=https%3A%2F%2Ffonts.googleapis.com%2Fcss%3Ffamily%3DArchitects%2BDaughter;fontSize=14;movable=0;resizable=0;rotatable=0;deletable=0;editable=0;locked=1;connectable=0;" parent="1" vertex="1">
          <mxGeometry x="-1066" y="20" width="300" height="160" as="geometry" />
        </mxCell>
        <mxCell id="nvV4u8w8GEPqKtK5y-YX-161" style="edgeStyle=orthogonalEdgeStyle;shape=connector;curved=1;rounded=0;hachureGap=4;orthogonalLoop=1;jettySize=auto;html=1;entryX=0;entryY=0.5;entryDx=0;entryDy=0;strokeColor=#FF3333;strokeWidth=4;align=center;verticalAlign=middle;fontFamily=Architects Daughter;fontSource=https%3A%2F%2Ffonts.googleapis.com%2Fcss%3Ffamily%3DArchitects%2BDaughter;fontSize=11;fontColor=default;labelBackgroundColor=default;endArrow=classic;exitX=1.002;exitY=0.371;exitDx=0;exitDy=0;exitPerimeter=0;movable=0;resizable=0;rotatable=0;deletable=0;editable=0;locked=1;connectable=0;" parent="1" source="nvV4u8w8GEPqKtK5y-YX-2" target="nvV4u8w8GEPqKtK5y-YX-158" edge="1">
          <mxGeometry relative="1" as="geometry" />
        </mxCell>
        <mxCell id="e7LcBreegsllCSHFEV6Y-52" style="edgeStyle=orthogonalEdgeStyle;shape=connector;curved=1;rounded=0;hachureGap=4;orthogonalLoop=1;jettySize=auto;html=1;entryX=0;entryY=0.5;entryDx=0;entryDy=0;strokeColor=#FF3333;strokeWidth=4;align=center;verticalAlign=middle;fontFamily=Architects Daughter;fontSource=https%3A%2F%2Ffonts.googleapis.com%2Fcss%3Ffamily%3DArchitects%2BDaughter;fontSize=11;fontColor=default;labelBackgroundColor=default;endArrow=classic;exitX=0.5;exitY=1;exitDx=0;exitDy=0;movable=0;resizable=0;rotatable=0;deletable=0;editable=0;locked=1;connectable=0;" parent="1" source="nvV4u8w8GEPqKtK5y-YX-2" target="nvV4u8w8GEPqKtK5y-YX-151" edge="1">
          <mxGeometry relative="1" as="geometry" />
        </mxCell>
        <mxCell id="nvV4u8w8GEPqKtK5y-YX-2" value="&lt;h1 style=&quot;margin-top: 0px;&quot;&gt;Path to success&lt;/h1&gt;&lt;p&gt;&lt;/p&gt;&lt;ul&gt;&lt;li&gt;Adjust the Enterprise Data Architecture&lt;br&gt;&lt;br&gt;&lt;/li&gt;&lt;li&gt;&lt;span style=&quot;background-color: transparent; color: light-dark(rgb(0, 0, 0), rgb(255, 255, 255));&quot;&gt;Discovery:&lt;/span&gt;&lt;/li&gt;&lt;ul&gt;&lt;li&gt;Define strong contracts between products&lt;br&gt;&lt;br&gt;&lt;/li&gt;&lt;li&gt;Design proper User Experience for Portal&lt;br&gt;&lt;br&gt;&lt;/li&gt;&lt;/ul&gt;&lt;li&gt;Define a solid software landscape&lt;br&gt;&lt;br&gt;&lt;/li&gt;&lt;li&gt;Modify/Split Create Enterprise Products exposing contracts (APIs)&lt;br&gt;&lt;br&gt;&lt;/li&gt;&lt;li&gt;Build the Travelers Portal on top of product contracts (API specs)&lt;/li&gt;&lt;/ul&gt;&lt;div&gt;&lt;br&gt;&lt;/div&gt;&lt;p&gt;&lt;/p&gt;" style="text;html=1;whiteSpace=wrap;overflow=hidden;rounded=0;fontFamily=Architects Daughter;fontSource=https%3A%2F%2Ffonts.googleapis.com%2Fcss%3Ffamily%3DArchitects%2BDaughter;movable=0;resizable=0;rotatable=0;deletable=0;editable=0;locked=1;connectable=0;" parent="1" vertex="1">
          <mxGeometry x="613" y="404" width="360" height="268" as="geometry" />
        </mxCell>
        <mxCell id="nvV4u8w8GEPqKtK5y-YX-143" value="" style="group;movable=0;resizable=0;rotatable=0;deletable=0;editable=0;locked=1;connectable=0;" parent="1" vertex="1" connectable="0">
          <mxGeometry x="1664" y="2016" width="560" height="300" as="geometry" />
        </mxCell>
        <mxCell id="nvV4u8w8GEPqKtK5y-YX-86" value="" style="rounded=0;whiteSpace=wrap;html=1;hachureGap=4;fontFamily=Architects Daughter;fontSource=https%3A%2F%2Ffonts.googleapis.com%2Fcss%3Ffamily%3DArchitects%2BDaughter;fillColor=#fff2cc;strokeColor=#d6b656;disableMultiStroke=1;movable=0;resizable=0;rotatable=0;deletable=0;editable=0;locked=1;connectable=0;" parent="nvV4u8w8GEPqKtK5y-YX-143" vertex="1">
          <mxGeometry width="560" height="300" as="geometry" />
        </mxCell>
        <mxCell id="nvV4u8w8GEPqKtK5y-YX-83" value="&lt;font style=&quot;font-size: 16px;&quot;&gt;Facade Patern&lt;/font&gt;" style="text;html=1;align=left;verticalAlign=middle;whiteSpace=wrap;rounded=0;fontFamily=Architects Daughter;fontSource=https%3A%2F%2Ffonts.googleapis.com%2Fcss%3Ffamily%3DArchitects%2BDaughter;fontStyle=1;movable=0;resizable=0;rotatable=0;deletable=0;editable=0;locked=1;connectable=0;" parent="nvV4u8w8GEPqKtK5y-YX-143" vertex="1">
          <mxGeometry width="141" height="30" as="geometry" />
        </mxCell>
        <mxCell id="nvV4u8w8GEPqKtK5y-YX-87" value="Legacy System" style="rounded=0;whiteSpace=wrap;html=1;hachureGap=4;fontFamily=Architects Daughter;fontSource=https%3A%2F%2Ffonts.googleapis.com%2Fcss%3Ffamily%3DArchitects%2BDaughter;movable=0;resizable=0;rotatable=0;deletable=0;editable=0;locked=1;connectable=0;" parent="nvV4u8w8GEPqKtK5y-YX-143" vertex="1">
          <mxGeometry x="20" y="130" width="70" height="71" as="geometry" />
        </mxCell>
        <mxCell id="nvV4u8w8GEPqKtK5y-YX-104" style="edgeStyle=orthogonalEdgeStyle;rounded=0;hachureGap=4;orthogonalLoop=1;jettySize=auto;html=1;fontFamily=Architects Daughter;fontSource=https%3A%2F%2Ffonts.googleapis.com%2Fcss%3Ffamily%3DArchitects%2BDaughter;disableMultiStroke=1;movable=0;resizable=0;rotatable=0;deletable=0;editable=0;locked=1;connectable=0;" parent="nvV4u8w8GEPqKtK5y-YX-143" source="nvV4u8w8GEPqKtK5y-YX-88" target="nvV4u8w8GEPqKtK5y-YX-97" edge="1">
          <mxGeometry relative="1" as="geometry" />
        </mxCell>
        <mxCell id="nvV4u8w8GEPqKtK5y-YX-100" style="edgeStyle=orthogonalEdgeStyle;rounded=0;hachureGap=4;orthogonalLoop=1;jettySize=auto;html=1;fontFamily=Architects Daughter;fontSource=https%3A%2F%2Ffonts.googleapis.com%2Fcss%3Ffamily%3DArchitects%2BDaughter;movable=0;resizable=0;rotatable=0;deletable=0;editable=0;locked=1;connectable=0;" parent="nvV4u8w8GEPqKtK5y-YX-143" source="nvV4u8w8GEPqKtK5y-YX-92" target="nvV4u8w8GEPqKtK5y-YX-97" edge="1">
          <mxGeometry relative="1" as="geometry" />
        </mxCell>
        <mxCell id="nvV4u8w8GEPqKtK5y-YX-92" value="OpenAPI/AsyncAPI Spec" style="aspect=fixed;pointerEvents=1;shadow=0;dashed=0;html=1;strokeColor=none;labelPosition=center;verticalLabelPosition=bottom;verticalAlign=top;align=center;fillColor=#00188D;shape=mxgraph.mscae.enterprise.document;hachureGap=4;fontFamily=Architects Daughter;fontSource=https%3A%2F%2Ffonts.googleapis.com%2Fcss%3Ffamily%3DArchitects%2BDaughter;movable=0;resizable=0;rotatable=0;deletable=0;editable=0;locked=1;connectable=0;" parent="nvV4u8w8GEPqKtK5y-YX-143" vertex="1">
          <mxGeometry x="285.46000000000004" y="10" width="40" height="50" as="geometry" />
        </mxCell>
        <mxCell id="nvV4u8w8GEPqKtK5y-YX-105" style="edgeStyle=orthogonalEdgeStyle;rounded=0;hachureGap=4;orthogonalLoop=1;jettySize=auto;html=1;fontFamily=Architects Daughter;fontSource=https%3A%2F%2Ffonts.googleapis.com%2Fcss%3Ffamily%3DArchitects%2BDaughter;disableMultiStroke=1;movable=0;resizable=0;rotatable=0;deletable=0;editable=0;locked=1;connectable=0;" parent="nvV4u8w8GEPqKtK5y-YX-143" source="nvV4u8w8GEPqKtK5y-YX-97" target="nvV4u8w8GEPqKtK5y-YX-87" edge="1">
          <mxGeometry relative="1" as="geometry" />
        </mxCell>
        <mxCell id="nvV4u8w8GEPqKtK5y-YX-97" value="API Provider" style="rounded=0;whiteSpace=wrap;html=1;hachureGap=4;fontFamily=Architects Daughter;fontSource=https%3A%2F%2Ffonts.googleapis.com%2Fcss%3Ffamily%3DArchitects%2BDaughter;movable=0;resizable=0;rotatable=0;deletable=0;editable=0;locked=1;connectable=0;" parent="nvV4u8w8GEPqKtK5y-YX-143" vertex="1">
          <mxGeometry x="270.63" y="130" width="70" height="71" as="geometry" />
        </mxCell>
        <mxCell id="nvV4u8w8GEPqKtK5y-YX-98" value="" style="aspect=fixed;html=1;dashed=0;whitespace=wrap;verticalLabelPosition=bottom;verticalAlign=top;fillColor=#2875E2;strokeColor=#ffffff;points=[[0.005,0.63,0],[0.1,0.2,0],[0.9,0.2,0],[0.5,0,0],[0.995,0.63,0],[0.72,0.99,0],[0.5,1,0],[0.28,0.99,0]];shape=mxgraph.kubernetes.icon2;kubernetesLabel=1;prIcon=api;hachureGap=4;fontFamily=Architects Daughter;fontSource=https%3A%2F%2Ffonts.googleapis.com%2Fcss%3Ffamily%3DArchitects%2BDaughter;movable=0;resizable=0;rotatable=0;deletable=0;editable=0;locked=1;connectable=0;" parent="nvV4u8w8GEPqKtK5y-YX-143" vertex="1">
          <mxGeometry x="330" y="150.5" width="31.25" height="30" as="geometry" />
        </mxCell>
        <mxCell id="nvV4u8w8GEPqKtK5y-YX-102" value="" style="shape=flexArrow;endArrow=classic;startArrow=classic;html=1;rounded=0;hachureGap=4;fontFamily=Architects Daughter;fontSource=https%3A%2F%2Ffonts.googleapis.com%2Fcss%3Ffamily%3DArchitects%2BDaughter;fillColor=#dae8fc;strokeColor=#6c8ebf;movable=0;resizable=0;rotatable=0;deletable=0;editable=0;locked=1;connectable=0;" parent="nvV4u8w8GEPqKtK5y-YX-143" edge="1">
          <mxGeometry width="100" height="100" relative="1" as="geometry">
            <mxPoint x="360" y="165.51999999999998" as="sourcePoint" />
            <mxPoint x="427.5" y="166" as="targetPoint" />
          </mxGeometry>
        </mxCell>
        <mxCell id="nvV4u8w8GEPqKtK5y-YX-106" style="edgeStyle=orthogonalEdgeStyle;rounded=0;hachureGap=4;orthogonalLoop=1;jettySize=auto;html=1;fontFamily=Architects Daughter;fontSource=https%3A%2F%2Ffonts.googleapis.com%2Fcss%3Ffamily%3DArchitects%2BDaughter;dashed=1;movable=0;resizable=0;rotatable=0;deletable=0;editable=0;locked=1;connectable=0;" parent="nvV4u8w8GEPqKtK5y-YX-143" source="nvV4u8w8GEPqKtK5y-YX-103" edge="1">
          <mxGeometry relative="1" as="geometry">
            <mxPoint x="307.7619047619046" y="222" as="targetPoint" />
          </mxGeometry>
        </mxCell>
        <mxCell id="nvV4u8w8GEPqKtK5y-YX-103" value="" style="image;aspect=fixed;html=1;points=[];align=center;fontSize=12;image=img/lib/mscae/Cache_Redis_Product.svg;hachureGap=4;fontFamily=Architects Daughter;fontSource=https%3A%2F%2Ffonts.googleapis.com%2Fcss%3Ffamily%3DArchitects%2BDaughter;movable=0;resizable=0;rotatable=0;deletable=0;editable=0;locked=1;connectable=0;" parent="nvV4u8w8GEPqKtK5y-YX-143" vertex="1">
          <mxGeometry x="180" y="250" width="50" height="42" as="geometry" />
        </mxCell>
        <mxCell id="nvV4u8w8GEPqKtK5y-YX-88" value="" style="aspect=fixed;html=1;dashed=0;whitespace=wrap;verticalLabelPosition=bottom;verticalAlign=top;fillColor=#2875E2;strokeColor=#ffffff;points=[[0.005,0.63,0],[0.1,0.2,0],[0.9,0.2,0],[0.5,0,0],[0.995,0.63,0],[0.72,0.99,0],[0.5,1,0],[0.28,0.99,0]];shape=mxgraph.kubernetes.icon2;kubernetesLabel=1;prIcon=api;hachureGap=4;fontFamily=Architects Daughter;fontSource=https%3A%2F%2Ffonts.googleapis.com%2Fcss%3Ffamily%3DArchitects%2BDaughter;movable=0;resizable=0;rotatable=0;deletable=0;editable=0;locked=1;connectable=0;" parent="nvV4u8w8GEPqKtK5y-YX-143" vertex="1">
          <mxGeometry x="80" y="157" width="18.75" height="18" as="geometry" />
        </mxCell>
        <mxCell id="nvV4u8w8GEPqKtK5y-YX-138" value="" style="outlineConnect=0;dashed=0;verticalLabelPosition=bottom;verticalAlign=top;align=center;html=1;shape=mxgraph.aws3.lambda_function;fillColor=#5294CF;gradientColor=none;hachureGap=4;fontFamily=Architects Daughter;fontSource=https%3A%2F%2Ffonts.googleapis.com%2Fcss%3Ffamily%3DArchitects%2BDaughter;fontSize=11;fontColor=default;labelBackgroundColor=default;movable=0;resizable=0;rotatable=0;deletable=0;editable=0;locked=1;connectable=0;" parent="nvV4u8w8GEPqKtK5y-YX-143" vertex="1">
          <mxGeometry x="291.34000000000003" y="193" width="28.57" height="30" as="geometry" />
        </mxCell>
        <mxCell id="nvV4u8w8GEPqKtK5y-YX-141" value="" style="edgeStyle=orthogonalEdgeStyle;shape=connector;curved=1;rounded=0;hachureGap=4;orthogonalLoop=1;jettySize=auto;html=1;dashed=1;strokeColor=default;align=center;verticalAlign=middle;fontFamily=Architects Daughter;fontSource=https%3A%2F%2Ffonts.googleapis.com%2Fcss%3Ffamily%3DArchitects%2BDaughter;fontSize=11;fontColor=default;labelBackgroundColor=default;endArrow=classic;movable=0;resizable=0;rotatable=0;deletable=0;editable=0;locked=1;connectable=0;" parent="nvV4u8w8GEPqKtK5y-YX-143" source="nvV4u8w8GEPqKtK5y-YX-140" target="nvV4u8w8GEPqKtK5y-YX-138" edge="1">
          <mxGeometry relative="1" as="geometry" />
        </mxCell>
        <mxCell id="nvV4u8w8GEPqKtK5y-YX-140" value="Consumer" style="ellipse;whiteSpace=wrap;html=1;hachureGap=4;fontFamily=Architects Daughter;fontSource=https%3A%2F%2Ffonts.googleapis.com%2Fcss%3Ffamily%3DArchitects%2BDaughter;fontSize=11;fontColor=default;labelBackgroundColor=default;movable=0;resizable=0;rotatable=0;deletable=0;editable=0;locked=1;connectable=0;" parent="nvV4u8w8GEPqKtK5y-YX-143" vertex="1">
          <mxGeometry x="432.5" y="145.5" width="60" height="40" as="geometry" />
        </mxCell>
        <mxCell id="nvV4u8w8GEPqKtK5y-YX-156" style="edgeStyle=orthogonalEdgeStyle;shape=connector;curved=1;rounded=0;hachureGap=4;orthogonalLoop=1;jettySize=auto;html=1;exitX=-0.007;exitY=0.217;exitDx=0;exitDy=0;strokeColor=#FF3333;align=center;verticalAlign=middle;fontFamily=Architects Daughter;fontSource=https%3A%2F%2Ffonts.googleapis.com%2Fcss%3Ffamily%3DArchitects%2BDaughter;fontSize=11;fontColor=default;labelBackgroundColor=default;endArrow=classic;strokeWidth=4;exitPerimeter=0;movable=0;resizable=0;rotatable=0;deletable=0;editable=0;locked=1;connectable=0;" parent="1" source="nvV4u8w8GEPqKtK5y-YX-2" target="nvV4u8w8GEPqKtK5y-YX-160" edge="1">
          <mxGeometry relative="1" as="geometry">
            <mxPoint x="-1" y="809" as="targetPoint" />
          </mxGeometry>
        </mxCell>
        <mxCell id="nvV4u8w8GEPqKtK5y-YX-163" value="" style="group;movable=0;resizable=0;rotatable=0;deletable=0;editable=0;locked=1;connectable=0;" parent="1" vertex="1" connectable="0">
          <mxGeometry x="1313" y="275" width="146" height="111" as="geometry" />
        </mxCell>
        <mxCell id="nvV4u8w8GEPqKtK5y-YX-158" value="" style="rounded=0;whiteSpace=wrap;html=1;fillColor=#fff2cc;strokeColor=#d6b656;movable=0;resizable=0;rotatable=0;deletable=0;editable=0;locked=1;connectable=0;" parent="nvV4u8w8GEPqKtK5y-YX-163" vertex="1">
          <mxGeometry width="146" height="111" as="geometry" />
        </mxCell>
        <mxCell id="nvV4u8w8GEPqKtK5y-YX-162" value="&lt;h1 style=&quot;margin-top: 0px;&quot;&gt;API Specs&lt;/h1&gt;&lt;p&gt;&lt;/p&gt;&lt;ul&gt;&lt;li&gt;OpenAPI&lt;/li&gt;&lt;li&gt;AsyncAPI&lt;/li&gt;&lt;/ul&gt;&lt;p&gt;&lt;/p&gt;" style="text;html=1;whiteSpace=wrap;overflow=hidden;rounded=0;fontFamily=Architects Daughter;fontSource=https%3A%2F%2Ffonts.googleapis.com%2Fcss%3Ffamily%3DArchitects%2BDaughter;movable=0;resizable=0;rotatable=0;deletable=0;editable=0;locked=1;connectable=0;" parent="nvV4u8w8GEPqKtK5y-YX-163" vertex="1">
          <mxGeometry x="8.190000000000055" y="3" width="135" height="97" as="geometry" />
        </mxCell>
        <mxCell id="e7LcBreegsllCSHFEV6Y-51" value="" style="group;movable=0;resizable=0;rotatable=0;deletable=0;editable=0;locked=1;connectable=0;" parent="1" vertex="1" connectable="0">
          <mxGeometry x="1348" y="640" width="2022" height="1060" as="geometry" />
        </mxCell>
        <mxCell id="nvV4u8w8GEPqKtK5y-YX-151" value="" style="rounded=0;whiteSpace=wrap;html=1;hachureGap=4;fontFamily=Architects Daughter;fontSource=https%3A%2F%2Ffonts.googleapis.com%2Fcss%3Ffamily%3DArchitects%2BDaughter;fontSize=11;labelBackgroundColor=default;fillColor=#f5f5f5;strokeColor=#666666;fontColor=#333333;movable=0;resizable=0;rotatable=0;deletable=0;editable=0;locked=1;connectable=0;" parent="e7LcBreegsllCSHFEV6Y-51" vertex="1">
          <mxGeometry x="9" y="22" width="2022" height="1060" as="geometry" />
        </mxCell>
        <mxCell id="nvV4u8w8GEPqKtK5y-YX-117" value="" style="rounded=0;whiteSpace=wrap;html=1;hachureGap=4;fontFamily=Architects Daughter;fontSource=https%3A%2F%2Ffonts.googleapis.com%2Fcss%3Ffamily%3DArchitects%2BDaughter;fillColor=#fff2cc;strokeColor=#d6b656;movable=0;resizable=0;rotatable=0;deletable=0;editable=0;locked=1;connectable=0;" parent="e7LcBreegsllCSHFEV6Y-51" vertex="1">
          <mxGeometry x="169.5" y="212" width="200" height="400" as="geometry" />
        </mxCell>
        <mxCell id="nvV4u8w8GEPqKtK5y-YX-49" value="Legacy DB" style="shape=cylinder3;whiteSpace=wrap;html=1;boundedLbl=1;backgroundOutline=1;size=15;hachureGap=4;fontFamily=Architects Daughter;fontSource=https%3A%2F%2Ffonts.googleapis.com%2Fcss%3Ffamily%3DArchitects%2BDaughter;fillColor=#dae8fc;strokeColor=#6c8ebf;movable=0;resizable=0;rotatable=0;deletable=0;editable=0;locked=1;connectable=0;" parent="e7LcBreegsllCSHFEV6Y-51" vertex="1">
          <mxGeometry x="239.5" y="247" width="60" height="70" as="geometry" />
        </mxCell>
        <mxCell id="nvV4u8w8GEPqKtK5y-YX-50" value="3rd-party system" style="shape=process;whiteSpace=wrap;html=1;backgroundOutline=1;hachureGap=4;fontFamily=Architects Daughter;fontSource=https%3A%2F%2Ffonts.googleapis.com%2Fcss%3Ffamily%3DArchitects%2BDaughter;fillColor=#dae8fc;strokeColor=#6c8ebf;movable=0;resizable=0;rotatable=0;deletable=0;editable=0;locked=1;connectable=0;" parent="e7LcBreegsllCSHFEV6Y-51" vertex="1">
          <mxGeometry x="209.5" y="377" width="120" height="60" as="geometry" />
        </mxCell>
        <mxCell id="nvV4u8w8GEPqKtK5y-YX-51" value="On-premise ERP" style="shape=process;whiteSpace=wrap;html=1;backgroundOutline=1;hachureGap=4;fontFamily=Architects Daughter;fontSource=https%3A%2F%2Ffonts.googleapis.com%2Fcss%3Ffamily%3DArchitects%2BDaughter;fillColor=#dae8fc;strokeColor=#6c8ebf;movable=0;resizable=0;rotatable=0;deletable=0;editable=0;locked=1;connectable=0;" parent="e7LcBreegsllCSHFEV6Y-51" vertex="1">
          <mxGeometry x="209.5" y="517" width="120" height="60" as="geometry" />
        </mxCell>
        <mxCell id="nvV4u8w8GEPqKtK5y-YX-71" style="edgeStyle=orthogonalEdgeStyle;rounded=0;hachureGap=4;orthogonalLoop=1;jettySize=auto;html=1;fontFamily=Architects Daughter;fontSource=https%3A%2F%2Ffonts.googleapis.com%2Fcss%3Ffamily%3DArchitects%2BDaughter;disableMultiStroke=1;movable=0;resizable=0;rotatable=0;deletable=0;editable=0;locked=1;connectable=0;" parent="e7LcBreegsllCSHFEV6Y-51" source="nvV4u8w8GEPqKtK5y-YX-52" target="nvV4u8w8GEPqKtK5y-YX-62" edge="1">
          <mxGeometry relative="1" as="geometry" />
        </mxCell>
        <mxCell id="nvV4u8w8GEPqKtK5y-YX-72" style="edgeStyle=orthogonalEdgeStyle;rounded=0;hachureGap=4;orthogonalLoop=1;jettySize=auto;html=1;fontFamily=Architects Daughter;fontSource=https%3A%2F%2Ffonts.googleapis.com%2Fcss%3Ffamily%3DArchitects%2BDaughter;movable=0;resizable=0;rotatable=0;deletable=0;editable=0;locked=1;connectable=0;" parent="e7LcBreegsllCSHFEV6Y-51" source="nvV4u8w8GEPqKtK5y-YX-53" target="nvV4u8w8GEPqKtK5y-YX-67" edge="1">
          <mxGeometry relative="1" as="geometry" />
        </mxCell>
        <mxCell id="nvV4u8w8GEPqKtK5y-YX-74" style="edgeStyle=orthogonalEdgeStyle;rounded=0;hachureGap=4;orthogonalLoop=1;jettySize=auto;html=1;fontFamily=Architects Daughter;fontSource=https%3A%2F%2Ffonts.googleapis.com%2Fcss%3Ffamily%3DArchitects%2BDaughter;movable=0;resizable=0;rotatable=0;deletable=0;editable=0;locked=1;connectable=0;" parent="e7LcBreegsllCSHFEV6Y-51" source="nvV4u8w8GEPqKtK5y-YX-53" target="nvV4u8w8GEPqKtK5y-YX-68" edge="1">
          <mxGeometry relative="1" as="geometry" />
        </mxCell>
        <mxCell id="nvV4u8w8GEPqKtK5y-YX-91" style="edgeStyle=orthogonalEdgeStyle;rounded=0;hachureGap=4;orthogonalLoop=1;jettySize=auto;html=1;fontFamily=Architects Daughter;fontSource=https%3A%2F%2Ffonts.googleapis.com%2Fcss%3Ffamily%3DArchitects%2BDaughter;entryX=0;entryY=0.25;entryDx=0;entryDy=0;movable=0;resizable=0;rotatable=0;deletable=0;editable=0;locked=1;connectable=0;" parent="e7LcBreegsllCSHFEV6Y-51" source="nvV4u8w8GEPqKtK5y-YX-54" target="nvV4u8w8GEPqKtK5y-YX-69" edge="1">
          <mxGeometry relative="1" as="geometry" />
        </mxCell>
        <mxCell id="nvV4u8w8GEPqKtK5y-YX-57" value="" style="shape=flexArrow;endArrow=classic;startArrow=classic;html=1;rounded=0;hachureGap=4;fontFamily=Architects Daughter;fontSource=https%3A%2F%2Ffonts.googleapis.com%2Fcss%3Ffamily%3DArchitects%2BDaughter;disableMultiStroke=1;fillColor=default;movable=0;resizable=0;rotatable=0;deletable=0;editable=0;locked=1;connectable=0;" parent="e7LcBreegsllCSHFEV6Y-51" source="nvV4u8w8GEPqKtK5y-YX-49" target="nvV4u8w8GEPqKtK5y-YX-52" edge="1">
          <mxGeometry width="100" height="100" relative="1" as="geometry">
            <mxPoint x="839.5" y="432" as="sourcePoint" />
            <mxPoint x="939.5" y="332" as="targetPoint" />
          </mxGeometry>
        </mxCell>
        <mxCell id="nvV4u8w8GEPqKtK5y-YX-58" value="" style="shape=flexArrow;endArrow=classic;startArrow=classic;html=1;rounded=0;hachureGap=4;fontFamily=Architects Daughter;fontSource=https%3A%2F%2Ffonts.googleapis.com%2Fcss%3Ffamily%3DArchitects%2BDaughter;disableMultiStroke=1;fillColor=default;movable=0;resizable=0;rotatable=0;deletable=0;editable=0;locked=1;connectable=0;" parent="e7LcBreegsllCSHFEV6Y-51" source="nvV4u8w8GEPqKtK5y-YX-50" target="nvV4u8w8GEPqKtK5y-YX-53" edge="1">
          <mxGeometry width="100" height="100" relative="1" as="geometry">
            <mxPoint x="489.5" y="401.76" as="sourcePoint" />
            <mxPoint x="559.5" y="402" as="targetPoint" />
          </mxGeometry>
        </mxCell>
        <mxCell id="nvV4u8w8GEPqKtK5y-YX-59" value="" style="shape=flexArrow;endArrow=classic;startArrow=classic;html=1;rounded=0;hachureGap=4;fontFamily=Architects Daughter;fontSource=https%3A%2F%2Ffonts.googleapis.com%2Fcss%3Ffamily%3DArchitects%2BDaughter;disableMultiStroke=1;fillColor=default;movable=0;resizable=0;rotatable=0;deletable=0;editable=0;locked=1;connectable=0;" parent="e7LcBreegsllCSHFEV6Y-51" source="nvV4u8w8GEPqKtK5y-YX-51" target="nvV4u8w8GEPqKtK5y-YX-54" edge="1">
          <mxGeometry width="100" height="100" relative="1" as="geometry">
            <mxPoint x="489.5" y="541.76" as="sourcePoint" />
            <mxPoint x="559.5" y="541.76" as="targetPoint" />
          </mxGeometry>
        </mxCell>
        <mxCell id="nvV4u8w8GEPqKtK5y-YX-60" value="&lt;font style=&quot;font-size: 31px;&quot;&gt;(...)&lt;/font&gt;" style="text;html=1;align=center;verticalAlign=middle;whiteSpace=wrap;rounded=0;fontFamily=Architects Daughter;fontSource=https%3A%2F%2Ffonts.googleapis.com%2Fcss%3Ffamily%3DArchitects%2BDaughter;movable=0;resizable=0;rotatable=0;deletable=0;editable=0;locked=1;connectable=0;" parent="e7LcBreegsllCSHFEV6Y-51" vertex="1">
          <mxGeometry x="249.50121495327085" y="466.99769230769243" width="51.58878504672897" height="23.076923076923073" as="geometry" />
        </mxCell>
        <mxCell id="nvV4u8w8GEPqKtK5y-YX-75" style="edgeStyle=orthogonalEdgeStyle;rounded=0;hachureGap=4;orthogonalLoop=1;jettySize=auto;html=1;entryX=0;entryY=0.5;entryDx=0;entryDy=0;fontFamily=Architects Daughter;fontSource=https%3A%2F%2Ffonts.googleapis.com%2Fcss%3Ffamily%3DArchitects%2BDaughter;disableMultiStroke=1;movable=0;resizable=0;rotatable=0;deletable=0;editable=0;locked=1;connectable=0;" parent="e7LcBreegsllCSHFEV6Y-51" source="nvV4u8w8GEPqKtK5y-YX-61" target="nvV4u8w8GEPqKtK5y-YX-70" edge="1">
          <mxGeometry relative="1" as="geometry" />
        </mxCell>
        <mxCell id="nvV4u8w8GEPqKtK5y-YX-69" value="&lt;font style=&quot;font-size: 31px;&quot;&gt;(...)&lt;/font&gt;" style="text;html=1;align=center;verticalAlign=middle;whiteSpace=wrap;rounded=0;fontFamily=Architects Daughter;fontSource=https%3A%2F%2Ffonts.googleapis.com%2Fcss%3Ffamily%3DArchitects%2BDaughter;movable=0;resizable=0;rotatable=0;deletable=0;editable=0;locked=1;connectable=0;" parent="e7LcBreegsllCSHFEV6Y-51" vertex="1">
          <mxGeometry x="792.0012149532708" y="602.4976923076922" width="51.58878504672897" height="23.076923076923073" as="geometry" />
        </mxCell>
        <mxCell id="nvV4u8w8GEPqKtK5y-YX-81" value="" style="rounded=0;whiteSpace=wrap;html=1;hachureGap=4;fontFamily=Architects Daughter;fontSource=https%3A%2F%2Ffonts.googleapis.com%2Fcss%3Ffamily%3DArchitects%2BDaughter;fillColor=#dae8fc;strokeColor=#6c8ebf;movable=0;resizable=0;rotatable=0;deletable=0;editable=0;locked=1;connectable=0;" parent="e7LcBreegsllCSHFEV6Y-51" vertex="1">
          <mxGeometry x="1272" y="69.5" width="630" height="685.5" as="geometry" />
        </mxCell>
        <mxCell id="nvV4u8w8GEPqKtK5y-YX-132" style="edgeStyle=orthogonalEdgeStyle;rounded=0;hachureGap=4;orthogonalLoop=1;jettySize=auto;html=1;fontFamily=Architects Daughter;fontSource=https%3A%2F%2Ffonts.googleapis.com%2Fcss%3Ffamily%3DArchitects%2BDaughter;disableMultiStroke=1;movable=0;resizable=0;rotatable=0;deletable=0;editable=0;locked=1;connectable=0;" parent="e7LcBreegsllCSHFEV6Y-51" source="nvV4u8w8GEPqKtK5y-YX-82" target="nvV4u8w8GEPqKtK5y-YX-116" edge="1">
          <mxGeometry relative="1" as="geometry" />
        </mxCell>
        <mxCell id="e7LcBreegsllCSHFEV6Y-35" style="edgeStyle=orthogonalEdgeStyle;shape=connector;rounded=0;hachureGap=4;orthogonalLoop=1;jettySize=auto;html=1;strokeColor=default;align=center;verticalAlign=middle;fontFamily=Architects Daughter;fontSource=https%3A%2F%2Ffonts.googleapis.com%2Fcss%3Ffamily%3DArchitects%2BDaughter;fontSize=11;fontColor=default;labelBackgroundColor=default;endArrow=classic;movable=0;resizable=0;rotatable=0;deletable=0;editable=0;locked=1;connectable=0;" parent="e7LcBreegsllCSHFEV6Y-51" source="nvV4u8w8GEPqKtK5y-YX-82" target="e7LcBreegsllCSHFEV6Y-1" edge="1">
          <mxGeometry relative="1" as="geometry" />
        </mxCell>
        <mxCell id="nvV4u8w8GEPqKtK5y-YX-82" value="Event Broker" style="outlineConnect=0;fontColor=#232F3E;gradientColor=none;fillColor=#E7157B;strokeColor=none;dashed=0;verticalLabelPosition=bottom;verticalAlign=top;align=center;html=1;fontSize=12;fontStyle=0;aspect=fixed;pointerEvents=1;shape=mxgraph.aws4.mq_broker;hachureGap=4;fontFamily=Architects Daughter;fontSource=https%3A%2F%2Ffonts.googleapis.com%2Fcss%3Ffamily%3DArchitects%2BDaughter;movable=0;resizable=0;rotatable=0;deletable=0;editable=0;locked=1;connectable=0;" parent="e7LcBreegsllCSHFEV6Y-51" vertex="1">
          <mxGeometry x="1050.07" y="78" width="128.87" height="114" as="geometry" />
        </mxCell>
        <mxCell id="nvV4u8w8GEPqKtK5y-YX-108" value="API Management System" style="image;aspect=fixed;html=1;points=[];align=center;fontSize=12;image=img/lib/azure2/app_services/API_Management_Services.svg;hachureGap=4;fontFamily=Architects Daughter;fontSource=https%3A%2F%2Ffonts.googleapis.com%2Fcss%3Ffamily%3DArchitects%2BDaughter;movable=0;resizable=0;rotatable=0;deletable=0;editable=0;locked=1;connectable=0;" parent="e7LcBreegsllCSHFEV6Y-51" vertex="1">
          <mxGeometry x="1095" y="784" width="146.25" height="135" as="geometry" />
        </mxCell>
        <mxCell id="nvV4u8w8GEPqKtK5y-YX-110" value="" style="shape=image;verticalLabelPosition=bottom;labelBackgroundColor=default;verticalAlign=top;aspect=fixed;imageAspect=0;image=data:image/jpeg,/9j/4AAQSkZJRgABAQAAAQABAAD/2wCEAAkGBxISEhUSEhAVFRUVFhUVFRcXFxUaGBUVFRUWFhUVFR0YHSggGB0lHRUVITEhJSkrLi4uFx8zODMtNygtLisBCgoKDg0OFRAQFy0dHR0tLS0tLS0rLS0tLS0rLS0tLS0rLS0tLS0tLS0tLS0tLS0tLS0tLS0tLS0tLSstLS0rLf/AABEIAKgBLAMBIgACEQEDEQH/xAAcAAADAAMBAQEAAAAAAAAAAAAAAQIFBgcDBAj/xABUEAABAgMEBgYGBAUQCwEAAAABAAIDBBEFEiExQVFhcYHwBgcTkaGxF1XB0eHxFCIy00JUk7LSFSMlNVJiZXKDkpSio7O04yQmMzZDY3SChIWlFv/EABgBAQEBAQEAAAAAAAAAAAAAAAABAgME/8QAHhEBAQEAAwEBAAMAAAAAAAAAAAERAhIhMWEyQVH/2gAMAwEAAhEDEQA/AOO3sAdIJHAU96bh9oajh3053J6doyA0b0qaK7XHnkr0spi511gH3qgfsneDuw9hooe6p8twXoBkNWLvb5Ab1QiKAj9yfh7Api59x7xX2qtB1uPz8wpiZ9w7hT2IsSE0IQCEIRTQhCRAmkmgE0AJgIlACpLnYmiBNKqFQVTohCARRFUqoHRFEk6oCiAmhA00gEwiHRCadEQgqQAmiGEwEAKkZCEwmqjGk/IZcTpU4nd4BNrePkN5T8acGjnmqw7hopl36Bu2ophqGvSU9ue05cBpUl+rPWfZqVFONMdOgah715hIJooQhCKEJhqoN29wqiJQroOSE7uwf1lU1CYC9Luzwcld5xHmhqQnzsTuj5UPki7t9nmohVTSpT4pqhhCSKoGlVCEAhCFFAQgIQNMFJAViLCakKgiUwqCQTARlQTokFQRmgBNNOiqAJoATRGM8fBo96lz+PkNwUudVJZenATVCEwihCYFVQbx3ZcSiJDaqwOO3QE/HwaEZ7dpwaNyJo8dpy4DSjy24DgAkXcdp9gRTSTTaczuVDvU18KBF7Z5koy2b8SeGhMnR5k+QRCp+980VOqneE7mzwKdOfrDyQIOHNCrB486ilnt7iPepIHOXwQWOfkUua6PeFJJ0486CqB0/PjrREkJK+dnHUkW/L3a0XSQkhFNCSagEIQgaEkwqigmkEwiKCsKFQRFhMBSCrCMGqCkJ0VSrCKIBTqjLCoQqua8PNZetIC9LuvuGfwTpoy2fhFMavAZ8SjOjZ4D2nngjZnsGQ3nSkT8hlxOlLE7vAIYZPHyCKVzyHdwTYOO3R8U9vifYFQAae4n2BInTltOZ3c8UzpPic+AUh2rv0oHls/OPu5zSvasN2fEqUIYaKpVSRV39ePmqB0+OnjrXkmComPUcMe4+4qS3SPkU9JGsV3GlfgvogSkR7e0bCe5jcIjmscWtGtxAo3CmepEeDT36doTGjwOo6kS0B73BsNjnv0NY0ucaYmgGJyVRYZa57HNLSM2kEFpGYIOIIxFEEOGngd6lWMSP3wpxyHkF5goQ01JKYRTQkmgaAhMKoYVBKiaBqgpVBGTVAqQmjL0CoKGqgqzVJgpVzSqiMYMNm05ndzxTy2fnH3I8Nv4R9ymur4lZehRw2bBnxPO5KpOAHd7UBnyHOCrZ4DLidKCWt4+Q3lV4+DQjx8AEnO4+Q3BUZewujU5O1MrLPjBmDnCgY053auIFaHKunJZc9Wlr+r37y+B4DtMF0G2bbjWZ0es98k4QnxewDnXWuP67BiRohAcCKlzcyDgStAHWrbP4+fyMr90ufblfi48z1Z2v+IPx/5kD7xYC27FmJKIIU1BMKIWh90lpq1xIBBaSM2uHBdg6m+nM/OzsSBNR+1YJd0QVhwmlrmRITcDDa2oIec65Djr9kTj53pOwTTu1EKYmYcMFrQGslxMPgtoAK3XAGpx2qdrvv8AQ1iW6urWiMD22fFocReMNhodbXuDhxC+Gzuic9MRo0CDKvfFgmkVlWAwzUtoS5wGYORW+9ZHWNacvaUxLy8z2UKEWNa0QoLs4bHEkvY4k1cdK1XohatsRJqM+z3vfMR/rx3NZBId9Ym8/tG3IYqTjhnRWXlmg9GVser3/wA+B+mvltPoHacvDdFiyMRrGirnAsfdAzJDHEgDXTBdCp0y2/8AzFs/V+7pAJki1G1lzDdQn6JVsQFt2nYGuIvZ1G5TtZ/g4RYXRubne0MrLujdkGl90sF0OvXftEVrddlXJYxgG/YPauudW042U6QTcq2jYUZ8zCYwZB0OI6JD3UaIjQNq0Tp/ZX0W0ZqAB9URS9gyFyLSI3HSBepwW5fUfJY/R2bm2RYkvAdFbCFYrgWhrAQXZuIvGgOArhvC2Xofalow7LnocrKNiyjhF7eMSA6HegNbEIF8VoyjsjTatpkf2P6LRIhoIk7eA0VEwRCFP5Ft5efVnj0etbdNf4NizeRjGdRFizDp1s4IRMuxsWE6JVtBELGm7St45jECmK8+nvQO0nzs5Msk3Ogue97Xh8HFgAqaF97IHClV7dRNtTDZxsm2Kfo72xYrmFrMYgY0XgSLwwaMAaYLz6e9P7Thzs3LMmy2CIj4bYYhwD9QgCl4svaTjWqnvbxWh2PZkeZishS8F8V9L11grQZ1JyaMWipoMVnvRla/q9/5SB94t36qI5lbFtKchBvbsdFo4iv+yl4boYOsBz3Gm0rSvSvbHrD+xlfulbbbkSR5R+re1mNLjZ8SgFTddCceDWvJO4BasQQaEEEGhBGINaUI110LpvQLrItSYtCWgRJrtYcSJdezsoAq26STVjA4UpXPQszOWbBPS2G24CCBHc3Cnatl3kOprq1rt+KTlZ9VoUt1dWs9oe2z4tCKi8YTDTa17w4cQvX0Z2v+IP8AykD7xbL1idY9pS9ozECBNiFDhOa1rRDgn/htcSTEY4kkk6VrnpWtf1h/Yyv3STuNftex5iVidlMwHwn0qA8ZjW0jBw2gledlxXMjwnMbfe2LDcxuP13te0tbhrIA4rrnWRHdNWBJTUwB25fBdeuhpJiMeHUGgOADqDDAHQuWdGx/pkr/ANTL/wB8xal2B9IZiJFm474sLs4r40Qvh41Y9zzVmskHDbxWXgdXlqvaHNs+LQiovGE08WveCNxC2Sx4TXdJZhzmh3ZxZuK0HK/DY8sPA47wFzuYn4sZxixYr3vf9ZznOJJJx5GQVn4mNk9HFrer4n8+B94tdnJSJBe6HFhuhvaaOa8EOB2g9+1ebXnMOII0gnDbsW3dMI7o0hZUxFN+M+HOQnxD9p7JeO1kK+Ti4gOdidZ1p6jUAFQSTVYqgmoqmFWV1TwUp1RGMDdfxVbMtgzO887keH5xQTTZsGfEqO500eA9pSJ+Qy461Jd3alKi4ZdVJCEHcrZsWNafR2z2STRFfC7Aubea0/rcGJBiAFxAqHOyJGAK5/6LLY/ED+Vl/vF2Gx7Lnn2HJwrPitk44ZCc4xGDEEExPwXXS5xD60rowqsZ/wDmOk/rmB/NH3C48eWKx3U30Jn5KciTE3AEGH9HfDBL4biXOiQ3YXHGgAhmpNMwtV6vphsTpI2Iw1Y+ZnntIyLXQplzTxBC2y2+hPSSPBdDiWpBisIN6GHOh3xpaS2EKg6iaHSuY9FbRfZdow40eA69LuitiQyQ11XQnwiK45X67abaqz3UfZ1s/tvOfx4f9zCW8dVEd0vYdpTMEXYzHRi19ASOzlobmVrmAXuOOGJXNOlttCdnI82IZhiK5rgHGpAaxrNGf2a8Vmer/p5Fstzx2YiwYpBfDc6hvAUvsNDQ0wIIxoFu8b1w18/pJtX1jEHCESf6q3rqc6ZT81PmDMTTosMwIjy1wYbrmuYGuq1oI+0Rx3JnrfkRnY4rqrBr+avGY66IbWOEnZjYUVwoHEso3US1jQXU1VG9Zstn8Rpdv2mZa2o8wDUwZ6JEo3MhkYlwrpqKjjoW6de1hOizclGg4/Sg2XBH2b98dkd5EU8GLksaIYjnPe6+97nPeTpc4kuc47SSuo9Fut0QJaFAmpPt3S4AhRA5o+yLrL18YOAwvDE6terL5Yj6eviZbBZI2dDpcgw+0I1BrRBg+Aiq+rQ/6v2tjomv8Gxc46V9IIloTL5qKAC6jWtFbsNjfssFcXaSTpJJoMlmejPTlspZ05ImA6IZrtbsQOADO1gthYimi7VTresg+zqP/baHthRsTmfqjILB9ZTqWrOjL9edvIIbTgsPYlrRZSYhzMFwESE680kVBqC1zXDSC0kHYV060OuOBHgvbFslpivhuYXX2ObUtLQauZWmOSt3disp1OWl9GsSemOz7TsY0aJcrS9cloLqVoaZZ0WP9O/8GQ/6R/lLTur3p7GsovaIYjQYlC+GTdN4Cl9hoaGmBBFDQLdvTJJeph3wf0Fi8fb4rwidfD6G5Z0JrqYExiQDtAhgkbKhYTqwtSLNW9BmI770SKY7nHIE/R3gBo0ANAAGoLYvTHJeph3wf0FzP9XXsnnT0u0QXdu+NDaKEMD3ONw0oCLri05YE5LU4+Xwdg6X9bv0KcjSv6nsf2TgL7o10uqxrq07M0+1rWI9Ov8ABkL+kf5S9G9dMB4Bj2S18SlHEPYQaarzKgbE/TDJepx3wf0FJx/BpXTjp9HtQsD2shwoZvNhMJd9Yil97jS8aEgYCgJ1rDdGjWblafjMv/fMWydMemkCdjykWHINhNl3lz2VYe2BfCdcN1oFKQyMa/bPHw6T9KYM1PwJyFK9gyF2FYYuVeYUZ0Qu+qAASCG/9oXSfPg2OxP945v+NPfmOXMIA+qNw8lsEz0kiC0X2hL1huMd8ZgdQ0DifqxKYEFpIIB0mh0rKRLesiIS+JYzw9xLniFNxGw7xzLW0AaNNBgEniNPC2vpEP2Ksj/2X+Khq/1XsX1PHP8A5kWixPSW33zj2Hs2QYUFghQILPsQmaqnFzjhU6aDBPqMRVCEKsmnztU87UVRmxdUrymqETHwl2rDnSpQhR3CEIQCDurs17EJgVRH6M6Z2HHtmFKzFm2gIcK64kX4jQ69dpXs/wAJtC0tIwx2rVPRJbPrVv5aa9y5TJTsWFXso0RlcT2b3sB2uukVX0C3Jv8AHJg/y0UAf1sVjpZ8Ndq6G9XdpSk3CmI9pB8OHeL2iLHdfBaRdIfQUqQanVkuXdZ9pwZm05mNALXQyWMDxiHmHDaxzm/uhVpAOIIAKwca1ph7S18zGe04EPixC07LpNCvhLvmecFZxy7UVXTltOfDVzipvaviUXdfxKrLDLYMzv1LYTW/Ic4KtngPadKWzwHtKRdo8Blx1oKpXbTRkBv1qS7j5DgkXV58kudqGAurz5JpIRQhCFAkJlFFQwmEqJgIqgqASCoc60FDnWqClMFUUhIBPnYgdEVQpJRKqqV5TVCjNh1RVTVCIuqKqQmOKMviQqLdvs80Xd3eFHXUpgKg3b3KtngMzv54JhqQ3idQVc0GQ3lGzwHtKRPHYMh71UPx8Gj3qS7j5DcEYnd4BMD5n2DSgVK4k87FWWzz4DQiunxOZ3c8UZbPzvggPDxcUq02bBnxKku1Yc6VKaYou7tSlCFFCdUkIKRz81KdUDohCEBVNJFFRVOcUwpomAirBTBUBWEFAKgoBTqqL52IqoqiqKZKKpVSqiGiqmqaiU01NUV50IypPvUVSxREB23xPtwRXmrfckQOaj3pUHJ+CNKJ5J9yRcPgMB8UqDk+4Jgah3AnzQLE7vDimG8fL4pnb4n2BBGvxwHAIDbntOQ3Dncjb4n2BSX8dp9g0KSUFF+rv0/BQhCihCEIBCEIBCEIBCEIoTqkhA6p1UoRFpj2fBSCmqptKpSUAoPT3JApV59yEDqiqVEURTTSrzpSqiKqlVIlTVNRRchIBCiKCFNUFyIkP2efvT7Tf3rzQjWPS/v70i/Z4n3qEJpir53bsEkkIBCEIBCEIBCEIBCEIBCEIBCEIoQhCAQhCBp1UpoiufkmoqnVFUiqSK8/NA6p1SSTQ7yVUgnXnWmho52JJVRFc7EVU1SQVVCSFBKEIVAhCEAhCEAhCEAhCEAhCEAhCEAhCEUIQhAIQhAIQhAIQhAJpIQNMFCEBVM6UkIgCNSEIoOlJJCIaSEIGhJCD//Z;movable=0;resizable=0;rotatable=0;deletable=0;editable=0;locked=1;connectable=0;" parent="e7LcBreegsllCSHFEV6Y-51" vertex="1">
          <mxGeometry x="1135.9999999999998" y="957" width="89.29" height="50" as="geometry" />
        </mxCell>
        <mxCell id="nvV4u8w8GEPqKtK5y-YX-111" value="Azure API Management" style="text;html=1;align=center;verticalAlign=middle;whiteSpace=wrap;rounded=0;fontFamily=Architects Daughter;fontSource=https%3A%2F%2Ffonts.googleapis.com%2Fcss%3Ffamily%3DArchitects%2BDaughter;movable=0;resizable=0;rotatable=0;deletable=0;editable=0;locked=1;connectable=0;" parent="e7LcBreegsllCSHFEV6Y-51" vertex="1">
          <mxGeometry x="1084.5" y="891" width="60" height="30" as="geometry" />
        </mxCell>
        <mxCell id="nvV4u8w8GEPqKtK5y-YX-112" style="edgeStyle=orthogonalEdgeStyle;rounded=0;hachureGap=4;orthogonalLoop=1;jettySize=auto;html=1;fontFamily=Architects Daughter;fontSource=https%3A%2F%2Ffonts.googleapis.com%2Fcss%3Ffamily%3DArchitects%2BDaughter;movable=0;resizable=0;rotatable=0;deletable=0;editable=0;locked=1;connectable=0;" parent="e7LcBreegsllCSHFEV6Y-51" source="nvV4u8w8GEPqKtK5y-YX-62" target="nvV4u8w8GEPqKtK5y-YX-82" edge="1">
          <mxGeometry relative="1" as="geometry" />
        </mxCell>
        <mxCell id="e7LcBreegsllCSHFEV6Y-47" style="edgeStyle=orthogonalEdgeStyle;rounded=0;orthogonalLoop=1;jettySize=auto;html=1;exitX=0;exitY=0.5;exitDx=0;exitDy=0;exitPerimeter=0;fillColor=#ffe6cc;strokeColor=#d79b00;strokeWidth=2;startArrow=classic;startFill=1;movable=0;resizable=0;rotatable=0;deletable=0;editable=0;locked=1;connectable=0;" parent="e7LcBreegsllCSHFEV6Y-51" source="nvV4u8w8GEPqKtK5y-YX-116" target="nvV4u8w8GEPqKtK5y-YX-67" edge="1">
          <mxGeometry relative="1" as="geometry">
            <Array as="points">
              <mxPoint x="991" y="422" />
              <mxPoint x="991" y="336" />
              <mxPoint x="745" y="336" />
            </Array>
          </mxGeometry>
        </mxCell>
        <mxCell id="e7LcBreegsllCSHFEV6Y-48" style="edgeStyle=orthogonalEdgeStyle;shape=connector;rounded=0;orthogonalLoop=1;jettySize=auto;html=1;strokeColor=#d79b00;strokeWidth=2;align=center;verticalAlign=middle;fontFamily=Helvetica;fontSize=11;fontColor=default;labelBackgroundColor=default;startArrow=classic;startFill=1;endArrow=classic;fillColor=#ffe6cc;movable=0;resizable=0;rotatable=0;deletable=0;editable=0;locked=1;connectable=0;" parent="e7LcBreegsllCSHFEV6Y-51" source="nvV4u8w8GEPqKtK5y-YX-116" target="nvV4u8w8GEPqKtK5y-YX-68" edge="1">
          <mxGeometry relative="1" as="geometry" />
        </mxCell>
        <mxCell id="e7LcBreegsllCSHFEV6Y-49" style="edgeStyle=orthogonalEdgeStyle;shape=connector;rounded=0;orthogonalLoop=1;jettySize=auto;html=1;entryX=1;entryY=0.5;entryDx=0;entryDy=0;strokeColor=#d79b00;strokeWidth=2;align=center;verticalAlign=middle;fontFamily=Helvetica;fontSize=11;fontColor=default;labelBackgroundColor=default;startArrow=classic;startFill=1;endArrow=classic;fillColor=#ffe6cc;movable=0;resizable=0;rotatable=0;deletable=0;editable=0;locked=1;connectable=0;" parent="e7LcBreegsllCSHFEV6Y-51" source="nvV4u8w8GEPqKtK5y-YX-116" target="nvV4u8w8GEPqKtK5y-YX-70" edge="1">
          <mxGeometry relative="1" as="geometry">
            <Array as="points">
              <mxPoint x="964" y="422" />
              <mxPoint x="964" y="703" />
            </Array>
          </mxGeometry>
        </mxCell>
        <mxCell id="e7LcBreegsllCSHFEV6Y-50" style="edgeStyle=orthogonalEdgeStyle;shape=connector;rounded=0;orthogonalLoop=1;jettySize=auto;html=1;strokeColor=#d79b00;strokeWidth=2;align=center;verticalAlign=middle;fontFamily=Helvetica;fontSize=11;fontColor=default;labelBackgroundColor=default;startArrow=classic;startFill=1;endArrow=classic;fillColor=#ffe6cc;movable=0;resizable=0;rotatable=0;deletable=0;editable=0;locked=1;connectable=0;" parent="e7LcBreegsllCSHFEV6Y-51" source="nvV4u8w8GEPqKtK5y-YX-116" target="nvV4u8w8GEPqKtK5y-YX-66" edge="1">
          <mxGeometry relative="1" as="geometry">
            <Array as="points">
              <mxPoint x="990" y="422" />
              <mxPoint x="990" y="828" />
              <mxPoint x="539" y="828" />
              <mxPoint x="539" y="550" />
            </Array>
          </mxGeometry>
        </mxCell>
        <mxCell id="nvV4u8w8GEPqKtK5y-YX-116" value="API Gateway" style="points=[[0,0,0],[0.25,0,0],[0.5,0,0],[0.75,0,0],[1,0,0],[0,1,0],[0.25,1,0],[0.5,1,0],[0.75,1,0],[1,1,0],[0,0.25,0],[0,0.5,0],[0,0.75,0],[1,0.25,0],[1,0.5,0],[1,0.75,0]];outlineConnect=0;fontColor=#232F3E;fillColor=#E7157B;strokeColor=#ffffff;dashed=0;verticalLabelPosition=bottom;verticalAlign=top;align=center;html=1;fontSize=12;fontStyle=0;aspect=fixed;shape=mxgraph.aws4.resourceIcon;resIcon=mxgraph.aws4.api_gateway;hachureGap=4;fontFamily=Architects Daughter;fontSource=https%3A%2F%2Ffonts.googleapis.com%2Fcss%3Ffamily%3DArchitects%2BDaughter;movable=0;resizable=0;rotatable=0;deletable=0;editable=0;locked=1;connectable=0;" parent="e7LcBreegsllCSHFEV6Y-51" vertex="1">
          <mxGeometry x="1054.5" y="362" width="120" height="120" as="geometry" />
        </mxCell>
        <mxCell id="nvV4u8w8GEPqKtK5y-YX-118" value="Legacy/Third-Party stack" style="text;html=1;align=center;verticalAlign=middle;whiteSpace=wrap;rounded=0;fontFamily=Architects Daughter;fontSource=https%3A%2F%2Ffonts.googleapis.com%2Fcss%3Ffamily%3DArchitects%2BDaughter;movable=0;resizable=0;rotatable=0;deletable=0;editable=0;locked=1;connectable=0;" parent="e7LcBreegsllCSHFEV6Y-51" vertex="1">
          <mxGeometry x="169.5" y="182" width="150" height="30" as="geometry" />
        </mxCell>
        <mxCell id="nvV4u8w8GEPqKtK5y-YX-119" value="" style="group;movable=0;resizable=0;rotatable=0;deletable=0;editable=0;locked=1;connectable=0;" parent="e7LcBreegsllCSHFEV6Y-51" vertex="1" connectable="0">
          <mxGeometry x="582" y="132" width="102.03999999999996" height="60" as="geometry" />
        </mxCell>
        <mxCell id="nvV4u8w8GEPqKtK5y-YX-62" value="Product API 1" style="rounded=0;whiteSpace=wrap;html=1;hachureGap=4;fontFamily=Architects Daughter;fontSource=https%3A%2F%2Ffonts.googleapis.com%2Fcss%3Ffamily%3DArchitects%2BDaughter;movable=0;resizable=0;rotatable=0;deletable=0;editable=0;locked=1;connectable=0;" parent="nvV4u8w8GEPqKtK5y-YX-119" vertex="1">
          <mxGeometry width="90" height="50" as="geometry" />
        </mxCell>
        <mxCell id="nvV4u8w8GEPqKtK5y-YX-77" value="" style="aspect=fixed;html=1;dashed=0;whitespace=wrap;verticalLabelPosition=bottom;verticalAlign=top;fillColor=#2875E2;strokeColor=#ffffff;points=[[0.005,0.63,0],[0.1,0.2,0],[0.9,0.2,0],[0.5,0,0],[0.995,0.63,0],[0.72,0.99,0],[0.5,1,0],[0.28,0.99,0]];shape=mxgraph.kubernetes.icon2;kubernetesLabel=1;prIcon=api;hachureGap=4;fontFamily=Architects Daughter;fontSource=https%3A%2F%2Ffonts.googleapis.com%2Fcss%3Ffamily%3DArchitects%2BDaughter;movable=0;resizable=0;rotatable=0;deletable=0;editable=0;locked=1;connectable=0;" parent="nvV4u8w8GEPqKtK5y-YX-119" vertex="1">
          <mxGeometry x="70.78999999999996" y="30" width="31.25" height="30" as="geometry" />
        </mxCell>
        <mxCell id="nvV4u8w8GEPqKtK5y-YX-120" value="" style="group;movable=0;resizable=0;rotatable=0;deletable=0;editable=0;locked=1;connectable=0;" parent="e7LcBreegsllCSHFEV6Y-51" vertex="1" connectable="0">
          <mxGeometry x="699.96" y="259.5" width="102.03999999999996" height="60" as="geometry" />
        </mxCell>
        <mxCell id="nvV4u8w8GEPqKtK5y-YX-67" value="Product API 2" style="rounded=0;whiteSpace=wrap;html=1;hachureGap=4;fontFamily=Architects Daughter;fontSource=https%3A%2F%2Ffonts.googleapis.com%2Fcss%3Ffamily%3DArchitects%2BDaughter;movable=0;resizable=0;rotatable=0;deletable=0;editable=0;locked=1;connectable=0;" parent="nvV4u8w8GEPqKtK5y-YX-120" vertex="1">
          <mxGeometry width="90" height="50" as="geometry" />
        </mxCell>
        <mxCell id="nvV4u8w8GEPqKtK5y-YX-78" value="" style="aspect=fixed;html=1;dashed=0;whitespace=wrap;verticalLabelPosition=bottom;verticalAlign=top;fillColor=#2875E2;strokeColor=#ffffff;points=[[0.005,0.63,0],[0.1,0.2,0],[0.9,0.2,0],[0.5,0,0],[0.995,0.63,0],[0.72,0.99,0],[0.5,1,0],[0.28,0.99,0]];shape=mxgraph.kubernetes.icon2;kubernetesLabel=1;prIcon=api;hachureGap=4;fontFamily=Architects Daughter;fontSource=https%3A%2F%2Ffonts.googleapis.com%2Fcss%3Ffamily%3DArchitects%2BDaughter;movable=0;resizable=0;rotatable=0;deletable=0;editable=0;locked=1;connectable=0;" parent="nvV4u8w8GEPqKtK5y-YX-120" vertex="1">
          <mxGeometry x="70.78999999999996" y="30" width="31.25" height="30" as="geometry" />
        </mxCell>
        <mxCell id="nvV4u8w8GEPqKtK5y-YX-121" value="" style="group;movable=0;resizable=0;rotatable=0;deletable=0;editable=0;locked=1;connectable=0;" parent="e7LcBreegsllCSHFEV6Y-51" vertex="1" connectable="0">
          <mxGeometry x="752" y="422" width="102.03999999999996" height="60" as="geometry" />
        </mxCell>
        <mxCell id="nvV4u8w8GEPqKtK5y-YX-68" value="Product API 3" style="rounded=0;whiteSpace=wrap;html=1;hachureGap=4;fontFamily=Architects Daughter;fontSource=https%3A%2F%2Ffonts.googleapis.com%2Fcss%3Ffamily%3DArchitects%2BDaughter;movable=0;resizable=0;rotatable=0;deletable=0;editable=0;locked=1;connectable=0;" parent="nvV4u8w8GEPqKtK5y-YX-121" vertex="1">
          <mxGeometry width="90" height="50" as="geometry" />
        </mxCell>
        <mxCell id="nvV4u8w8GEPqKtK5y-YX-79" value="" style="aspect=fixed;html=1;dashed=0;whitespace=wrap;verticalLabelPosition=bottom;verticalAlign=top;fillColor=#2875E2;strokeColor=#ffffff;points=[[0.005,0.63,0],[0.1,0.2,0],[0.9,0.2,0],[0.5,0,0],[0.995,0.63,0],[0.72,0.99,0],[0.5,1,0],[0.28,0.99,0]];shape=mxgraph.kubernetes.icon2;kubernetesLabel=1;prIcon=api;hachureGap=4;fontFamily=Architects Daughter;fontSource=https%3A%2F%2Ffonts.googleapis.com%2Fcss%3Ffamily%3DArchitects%2BDaughter;movable=0;resizable=0;rotatable=0;deletable=0;editable=0;locked=1;connectable=0;" parent="nvV4u8w8GEPqKtK5y-YX-121" vertex="1">
          <mxGeometry x="70.78999999999996" y="30" width="31.25" height="30" as="geometry" />
        </mxCell>
        <mxCell id="nvV4u8w8GEPqKtK5y-YX-122" value="" style="group;movable=0;resizable=0;rotatable=0;deletable=0;editable=0;locked=1;connectable=0;" parent="e7LcBreegsllCSHFEV6Y-51" vertex="1" connectable="0">
          <mxGeometry x="662" y="677.5" width="102.03999999999996" height="60" as="geometry" />
        </mxCell>
        <mxCell id="nvV4u8w8GEPqKtK5y-YX-70" value="Product API N" style="rounded=0;whiteSpace=wrap;html=1;hachureGap=4;fontFamily=Architects Daughter;fontSource=https%3A%2F%2Ffonts.googleapis.com%2Fcss%3Ffamily%3DArchitects%2BDaughter;movable=0;resizable=0;rotatable=0;deletable=0;editable=0;locked=1;connectable=0;" parent="nvV4u8w8GEPqKtK5y-YX-122" vertex="1">
          <mxGeometry width="90" height="50" as="geometry" />
        </mxCell>
        <mxCell id="nvV4u8w8GEPqKtK5y-YX-80" value="" style="aspect=fixed;html=1;dashed=0;whitespace=wrap;verticalLabelPosition=bottom;verticalAlign=top;fillColor=#2875E2;strokeColor=#ffffff;points=[[0.005,0.63,0],[0.1,0.2,0],[0.9,0.2,0],[0.5,0,0],[0.995,0.63,0],[0.72,0.99,0],[0.5,1,0],[0.28,0.99,0]];shape=mxgraph.kubernetes.icon2;kubernetesLabel=1;prIcon=api;hachureGap=4;fontFamily=Architects Daughter;fontSource=https%3A%2F%2Ffonts.googleapis.com%2Fcss%3Ffamily%3DArchitects%2BDaughter;movable=0;resizable=0;rotatable=0;deletable=0;editable=0;locked=1;connectable=0;" parent="nvV4u8w8GEPqKtK5y-YX-122" vertex="1">
          <mxGeometry x="70.78999999999996" y="30" width="31.25" height="30" as="geometry" />
        </mxCell>
        <mxCell id="nvV4u8w8GEPqKtK5y-YX-123" style="edgeStyle=orthogonalEdgeStyle;rounded=0;hachureGap=4;orthogonalLoop=1;jettySize=auto;html=1;fontFamily=Architects Daughter;fontSource=https%3A%2F%2Ffonts.googleapis.com%2Fcss%3Ffamily%3DArchitects%2BDaughter;movable=0;resizable=0;rotatable=0;deletable=0;editable=0;locked=1;connectable=0;" parent="e7LcBreegsllCSHFEV6Y-51" source="nvV4u8w8GEPqKtK5y-YX-68" target="nvV4u8w8GEPqKtK5y-YX-82" edge="1">
          <mxGeometry relative="1" as="geometry">
            <Array as="points">
              <mxPoint x="892" y="447" />
              <mxPoint x="892" y="155" />
            </Array>
          </mxGeometry>
        </mxCell>
        <mxCell id="nvV4u8w8GEPqKtK5y-YX-124" value="" style="verticalLabelPosition=bottom;html=1;verticalAlign=top;align=center;strokeColor=none;fillColor=#00BEF2;shape=mxgraph.azure.code_file;pointerEvents=1;hachureGap=4;fontFamily=Architects Daughter;fontSource=https%3A%2F%2Ffonts.googleapis.com%2Fcss%3Ffamily%3DArchitects%2BDaughter;movable=0;resizable=0;rotatable=0;deletable=0;editable=0;locked=1;connectable=0;" parent="e7LcBreegsllCSHFEV6Y-51" vertex="1">
          <mxGeometry x="902" y="282" width="20" height="25" as="geometry" />
        </mxCell>
        <mxCell id="nvV4u8w8GEPqKtK5y-YX-125" value="OpenAPI" style="aspect=fixed;pointerEvents=1;shadow=0;dashed=0;html=1;strokeColor=none;labelPosition=center;verticalLabelPosition=bottom;verticalAlign=top;align=center;fillColor=#00188D;shape=mxgraph.mscae.enterprise.document;hachureGap=4;fontFamily=Architects Daughter;fontSource=https%3A%2F%2Ffonts.googleapis.com%2Fcss%3Ffamily%3DArchitects%2BDaughter;movable=0;resizable=0;rotatable=0;deletable=0;editable=0;locked=1;connectable=0;" parent="e7LcBreegsllCSHFEV6Y-51" vertex="1">
          <mxGeometry x="728" y="742" width="24" height="30" as="geometry" />
        </mxCell>
        <mxCell id="nvV4u8w8GEPqKtK5y-YX-126" value="OpenAPI" style="aspect=fixed;pointerEvents=1;shadow=0;dashed=0;html=1;strokeColor=none;labelPosition=center;verticalLabelPosition=bottom;verticalAlign=top;align=center;fillColor=#00188D;shape=mxgraph.mscae.enterprise.document;hachureGap=4;fontFamily=Architects Daughter;fontSource=https%3A%2F%2Ffonts.googleapis.com%2Fcss%3Ffamily%3DArchitects%2BDaughter;movable=0;resizable=0;rotatable=0;deletable=0;editable=0;locked=1;connectable=0;" parent="e7LcBreegsllCSHFEV6Y-51" vertex="1">
          <mxGeometry x="830.04" y="482.57000000000016" width="24" height="30" as="geometry" />
        </mxCell>
        <mxCell id="nvV4u8w8GEPqKtK5y-YX-128" value="AsyncAPI" style="aspect=fixed;pointerEvents=1;shadow=0;dashed=0;html=1;strokeColor=none;labelPosition=center;verticalLabelPosition=bottom;verticalAlign=top;align=center;fillColor=#FF3333;shape=mxgraph.mscae.enterprise.document;hachureGap=4;fontFamily=Architects Daughter;fontSource=https%3A%2F%2Ffonts.googleapis.com%2Fcss%3Ffamily%3DArchitects%2BDaughter;movable=0;resizable=0;rotatable=0;deletable=0;editable=0;locked=1;connectable=0;" parent="e7LcBreegsllCSHFEV6Y-51" vertex="1">
          <mxGeometry x="830.04" y="372" width="24" height="30" as="geometry" />
        </mxCell>
        <mxCell id="nvV4u8w8GEPqKtK5y-YX-129" value="AsyncAPI" style="aspect=fixed;pointerEvents=1;shadow=0;dashed=0;html=1;strokeColor=none;labelPosition=center;verticalLabelPosition=bottom;verticalAlign=top;align=center;fillColor=#FF3333;shape=mxgraph.mscae.enterprise.document;hachureGap=4;fontFamily=Architects Daughter;fontSource=https%3A%2F%2Ffonts.googleapis.com%2Fcss%3Ffamily%3DArchitects%2BDaughter;movable=0;resizable=0;rotatable=0;deletable=0;editable=0;locked=1;connectable=0;" parent="e7LcBreegsllCSHFEV6Y-51" vertex="1">
          <mxGeometry x="692" y="98" width="24" height="30" as="geometry" />
        </mxCell>
        <mxCell id="nvV4u8w8GEPqKtK5y-YX-130" value="OpenAPI" style="aspect=fixed;pointerEvents=1;shadow=0;dashed=0;html=1;strokeColor=none;labelPosition=center;verticalLabelPosition=bottom;verticalAlign=top;align=center;fillColor=#00188D;shape=mxgraph.mscae.enterprise.document;hachureGap=4;fontFamily=Architects Daughter;fontSource=https%3A%2F%2Ffonts.googleapis.com%2Fcss%3Ffamily%3DArchitects%2BDaughter;movable=0;resizable=0;rotatable=0;deletable=0;editable=0;locked=1;connectable=0;" parent="e7LcBreegsllCSHFEV6Y-51" vertex="1">
          <mxGeometry x="805.8" y="242" width="24" height="30" as="geometry" />
        </mxCell>
        <mxCell id="nvV4u8w8GEPqKtK5y-YX-131" value="" style="verticalLabelPosition=bottom;html=1;verticalAlign=top;align=center;strokeColor=none;fillColor=#00BEF2;shape=mxgraph.azure.code_file;pointerEvents=1;hachureGap=4;fontFamily=Architects Daughter;fontSource=https%3A%2F%2Ffonts.googleapis.com%2Fcss%3Ffamily%3DArchitects%2BDaughter;movable=0;resizable=0;rotatable=0;deletable=0;editable=0;locked=1;connectable=0;" parent="e7LcBreegsllCSHFEV6Y-51" vertex="1">
          <mxGeometry x="852" y="92" width="20" height="25" as="geometry" />
        </mxCell>
        <mxCell id="nvV4u8w8GEPqKtK5y-YX-133" style="edgeStyle=orthogonalEdgeStyle;rounded=0;hachureGap=4;orthogonalLoop=1;jettySize=auto;html=1;fontFamily=Architects Daughter;fontSource=https%3A%2F%2Ffonts.googleapis.com%2Fcss%3Ffamily%3DArchitects%2BDaughter;curved=1;dashed=1;fillColor=#d5e8d4;strokeColor=#82b366;movable=0;resizable=0;rotatable=0;deletable=0;editable=0;locked=1;connectable=0;" parent="e7LcBreegsllCSHFEV6Y-51" source="nvV4u8w8GEPqKtK5y-YX-108" edge="1">
          <mxGeometry relative="1" as="geometry">
            <mxPoint x="961.9899999999998" y="696.29" as="sourcePoint" />
            <mxPoint x="844.5" y="531.79" as="targetPoint" />
          </mxGeometry>
        </mxCell>
        <mxCell id="nvV4u8w8GEPqKtK5y-YX-134" style="edgeStyle=orthogonalEdgeStyle;shape=connector;curved=1;rounded=0;hachureGap=4;orthogonalLoop=1;jettySize=auto;html=1;entryX=1;entryY=0.5;entryDx=0;entryDy=0;entryPerimeter=0;dashed=1;strokeColor=#82b366;align=center;verticalAlign=middle;fontFamily=Architects Daughter;fontSource=https%3A%2F%2Ffonts.googleapis.com%2Fcss%3Ffamily%3DArchitects%2BDaughter;fontSize=11;fontColor=default;labelBackgroundColor=default;endArrow=classic;fillColor=#d5e8d4;movable=0;resizable=0;rotatable=0;deletable=0;editable=0;locked=1;connectable=0;" parent="e7LcBreegsllCSHFEV6Y-51" source="nvV4u8w8GEPqKtK5y-YX-108" target="nvV4u8w8GEPqKtK5y-YX-125" edge="1">
          <mxGeometry relative="1" as="geometry">
            <Array as="points">
              <mxPoint x="881" y="852" />
              <mxPoint x="881" y="757" />
            </Array>
          </mxGeometry>
        </mxCell>
        <mxCell id="nvV4u8w8GEPqKtK5y-YX-135" style="edgeStyle=orthogonalEdgeStyle;shape=connector;curved=1;rounded=0;hachureGap=4;orthogonalLoop=1;jettySize=auto;html=1;entryX=1;entryY=0.5;entryDx=0;entryDy=0;entryPerimeter=0;dashed=1;strokeColor=#82b366;align=center;verticalAlign=middle;fontFamily=Architects Daughter;fontSource=https%3A%2F%2Ffonts.googleapis.com%2Fcss%3Ffamily%3DArchitects%2BDaughter;fontSize=11;fontColor=default;labelBackgroundColor=default;endArrow=classic;fillColor=#d5e8d4;movable=0;resizable=0;rotatable=0;deletable=0;editable=0;locked=1;connectable=0;" parent="e7LcBreegsllCSHFEV6Y-51" source="nvV4u8w8GEPqKtK5y-YX-108" target="nvV4u8w8GEPqKtK5y-YX-128" edge="1">
          <mxGeometry relative="1" as="geometry" />
        </mxCell>
        <mxCell id="nvV4u8w8GEPqKtK5y-YX-137" value="" style="shape=image;verticalLabelPosition=bottom;labelBackgroundColor=default;verticalAlign=top;aspect=fixed;imageAspect=0;image=data:image/png,iVBORw0KGgoAAAANSUhEUgAAAUwAAACYCAMAAAC4aCDgAAAAhFBMVEX///8aGRkAAAAVFBQREBAYFxf4+PiGhYUGBAQ5Nzetra1gX19kY2OmpqbJyMiampq0tLRNTU1CQUHm5ub19fUODAzt7e3f39/T09MpKCiPj49IR0c9PDzb29t1dXVnZ2dWVla7u7tvb28jIiIvLi59fX26urqKioqWlpbNzc1SUlKgoKAGqtZyAAAQzklEQVR4nO1daWOqTA+VsIq7smjdt9rq//9/L6gwyWwst+rjK+fL7S1U8DCTySQnodWSIOpf3F1n7Q6GE0d2vEFZBL0NAHihZXnJv4tT/Oobel8EXwCWwWACdBs662FrgW1wCOHr1bf1lliByVOZAubRq+/s7eDMQUbldXBOX31z74aRisvUdDZsVsJGzWXK5uTV9/dO+NJxmcz08atv8I0w5bi0TW5Zh59X3+L7YIy9SxvAOOypx2k3E70s+nhggnmJoyCaDM/YVfJWr77Jd8HCQkOQTej+LEQcN95mKSwBcblFB4IDY7OxmuXww8iEb3Ik2Ocz3Zq/6O7eDOd8lguWcYt4bpagEoiYHyQaxnY+NKH/ipt7N8T56LM2wsFefrAxmmXAHCMYCAcZ0577gnt7OwwZmd/CwYCReXzBvb0dEJlb4SAis3HbS4Ct2OALB5uRWQ0sygGiWUQG9fSCe3s7RDlftikcdD3NsG0gwEG+JG80HeS0L19yd++Gdb4DNw/coWNOpjkLXnJz74YhGn5rcsRnR8Lui+7uzeCgdDl0kCamh+Kc2t2kEzRKmgxHD5F2GN5/O8VJNsnalJ3m7zrzdnvUPW6bUEgLr+epcQRj1/N77gFQaFi1lkdfM4AwtEzTCj2A8bAZoVxy0g4hAZF3WAvZnwVH/jSwGwfKmeHsmQRSGcK3ISaITVh8vNQrFiVbhEsxnNRq7eTaJAt6T7/9/xiGOhUCyGIcag1II5zrqccm53zeoNR5NWy2UgddbjdtkIWLulo9TbOPX85kg9OTEtPTa5MaAUjiIXk8RyF0ZeKDmDvPNrm1KGwSw63ITVzwfHhaAB25MrOD/XkTYD9eJJ4pHtcwlP7hh2G7mmWkbHyFJIaI5mDhX+NJyy8L7UqF+NOH4m4PTfVM3THWbLjkv47WODAi5pM+ERmZSoFrZNmMSxJMchmbkhz8J6KQTKyZ4Uzjmo1ZaILJrRJksohduOEORTaT2jRymlYJMg8sZyQs9iz+1GyDUhSSyfJCYmCOaT3DzkPvshIm099v//KKApwiMlkoOdyJR9nBjfYq38M7/AdnPQN/M7sGaDP7/ptdefgEh6OITKTlkugScqNpjXQXcWaQ4aERu8kOwLppJjMyj/mVz4+88g1FZC61ZjEXe+qlxixZ/9CgiA/IvbiTmesqnmGIKkxzSZyz5DR/Dpku3uK+gszl3fMx21PFbpKJY8V5Mim5AD2FTBrxfjaZjt8x8olhQji+yEJpyJcUDrPYnF4c+wwyIxpSfC6Z8RHHjBLYadxI9L13ecxI0Gw6M7VuiZ74BDJdPDA9eCaZwQpkweEQRrx/hkQzvNeOcsb6+PAzyMRCFVgNBncf7Alk4nWPwoIV3WYPGGOmSewq2rWbbe3lnkAmKmIkbsfDyXS0OR2YIce6v8CnWgYamxccgruIV8EXfDyZ7G6oTvfRZEYzfU7HyqND8YbLu5mwuqsO+mOsTSoIGj2BTKaUBPL7B5MZmwWCjiwGHLhEgHSDB+2V6+4MwnJR1dATyNxk98OpIR9L5sQr4vL+nX2JHiaF6XkecQMSW1qg4HoCmXkVI6dHeSiZkVGCy9QILuR6GOnJRcHMJ5A5egWZc3HmygnCVFpaXiVlGxxqkxn1h1/H1fHruzCg9udkTrcDd7U6+X116b3Y6+TaB46btxQmdA+a4QzFd6kmc9pn4AmLfw5wvbf0Dtl+4jf/g5tv66Q//s6zK3juLzqoJjNCV+Z3HMHwjK7cvtyX15je6pLz1G2A0fHrMjh2QaGXSU45bFuxoRzQsCnkUk3mNzBYVJ3Y3xA5qB3eVc7OIf+Lmz82ASow9W4HfT2Z0Qxdmt7UJNkbsiyiYZsAX1c63fwPrt95QzkBc5AN4mA7lhpJ77ZSR23FaiTVJpUlc8qerRWSPdRkJHoSJoySu3UW+Wf17mRKn7F+O+ksUNsHyuUJxA+EMJ0X+bS2Uo/hl5xmchHK7V7YFiX7oYzto2zoltQOK8hE88SkXF4kTllKCCz/iMwz2jCRDcdUqsG6dTOhZI4wH5bHG6mA62pmwxid8jvGgz897DGq65A5MfKpYAKZ42vVrsJM2Bz/AZnoAtRHHip9mGTkETKJ0MWaSWITZJ9p77ki6v7Ig7uXaifrlnEsm9CRkukwJ82mBXEaNagJ0fzfyVwpNvLJjFAvxDAcYDJJlEpe0DdHY1eSipj4q/HVAoej47a87kBK5ig3KpxS5Kzb7Ybr0T+TiWI31OT7uiubh1VmexIyUdmk0uGbFPPtOFHgVCtakZHZYRWxNBh6FL6RjYdLyGKoGZlhAnaKmf431JCJa/RIxrUvuTK6NNuGJ2RiopQJMPTU5JUCdSAhc4e+EXmunN4+zdumEUrJinQnM+qs1+vdIfvW5nydInNLRTJxsI4sSpFB7KWZXnmfOFpitDIhEw9iZWQ8MtizCGXy9r8h86RaTXE1YuoGr/1JlCD2u4LHQtLGbG9Oo4ECmcgdgxGZYDuypMBisIzSzm5bF/hVKSET7X40gsoVrgb8BwIJQzyZ2GrR4b/C0wdOyC5HLvedCJllt5Mx+xBvTrgkfiOcsasz3NMHmZDZZYuLLG17BzYc8Ef1fDyZ36rVNDFFbGB6B85mT2dkrtchM9jnJIQH+u3OuEcet6IEZNSmZLZRlkStm8allX9Vws+Ria0WFyRBDke4EB5lsCAVntXJdNr5B4QH6o0gv9GWhMFOxAZ0W3t0H5qgWdlK6QqgZGKrxc0Q1IvB3EumRXDADkl1Mse5DbMMzrNDxc7Sr42djIRM/FA1Q+4B6mpCJtr4CAEnrKyVRt2W+O4qk8n2JNyWq4W/tiLcgFplcmRq4oMPJtNhVksMOLHVTyX4RHagMplscTM9nktmelSLM3qO/5lpPmaihrEwkXNVgx0qdv1BbTJXFzQuf/nPZf6FMn7NQm7cAqQO9mDXXpgLNYH3Xmw1bQv70djLblEmBr0BDd5KZCYPL/tBtsDkf2/zxjQHG7yca6S8V2y2HuAaMViSBYa5emoDgxpZVSTT0H14PifUvV6C/JyETNTT1Zwpadoh78NTnVQREjLNtmQeo0Z1yijK5J/JlHQURBs/zaTtoEAH3vXKPvD2qdZDt5M5bEviUORWzTZKfFZtMiVZfiaQFs1pjlP2WVygQ6L2vwFn3ApEL+WByEQ/aC6uU3WzXXg1MtnzlJhMJJBWS9ByBWUaz8Td7hVEkQpe6frjBPF0OqkWg2NkmizVDKLdzrcZuoq3TT0yzQUbSYZgYlC/QXXywMdkki2R3NVs64PDy5+uccvPHXZ++SpzNDW3zMEQiwXYyNRI5Of1yAxXzMyFwsAvNTJJ2oIMO9OQjDvSisPec7Z4uGD6WDMEr1u21gb7mUjhK4z8fB6pu1ThpaKq095VbwniPLqs8a3XaAHiMr2i5xphZZtxTZmjT94aXH7SDqFTzhEl20nmewnb736J1XxZczVPyESN6HnKgr30EVHkc+JKJn3fig0u+TI9W5Kq7t5HfbCW5e3CcmsUDXSwcBZvNpHlUnkbWIhZeW/O/FjBbOYRFLW5Zgv4lUw00G8XhlN85zPqyRPG4Y3xSSjPNdnQLbEUcSE4JrbhnDrWRF79lRZsdFWPGp2UZjP3IW1LtQINODL59lB2upIcXXc1F0LzjHHDby3VOkQo8Somjsyl0mzm59mqnSyaXHWCw8iZoN4malGvmmwsoXMjk+TLbjBDL4FOZ2jCaKZiOr14cR0dH2lHz7hNBjYbOZ5iw4ty0XXIRJF8ajaZKbYtub1GsvM7ma2NqjKAp4iIP/TtzgrbkAs5IJYzp2YT5WHku3MipK+TA2L+kWkS0tji5El35xOUTc7IDGZlBJo2+OcKYteisKdAZmQzy0fMJptKtiexXUTFV4tMtPx5G3KiKvd8Bxa2ZmS2ArtYOmynOaLvg1wrkooWPUK0amKoyUT+EbWOyAxZoiNMTX49MnElGD4Vp/JENh3igedktqJ90di8J+ecH0n+HWDj/nwdF7R5aUFXd4kI4Sg3mzjOYoXciPfpZKlHJjEleNexRt+Iz/PF1ANnZCq1lvmpuWmO1kLpyuk++ZakrW6N0hW2cSU2FwdaTNK2anrmZkpNMlEo0gzRfdOwxAwNzsjlaLCwVV3pGmhCG+1Op0SRFs7QzCMRvepFVdg/wolnop8P4eAOl3EcD08HQR9al8zWmWVOcEaP6NpMgNVlmly5/7MRtCSEzMRkqegM+SmLRDXmnqwJKP1d0HJLqoK7yM0mp54y76pqyXJYm0wUi8SjgO94m11ZXGMomS3H9eRdCrt80AQ5I3xABR/SbtLlYlfmpVn4WRS8r5UZ1dpkEkUJMiS84p8D6ydo8c5T9GUkizJWSYXJyBbjQKiOTihRQa92UO6l1WRGKO6AzWZHxyYcz/Ui7UQ5jJK+OIGj7Xhrtl0SNeLQP848VrxvdHzZMsJ81T8v3scyGfwwNO9lNq2Al2HXIRP5R8RsDnXK4T5RDkswcbO2Eop5ygQrD2gr4SKziZ/USsWmlZz2F2RiRQFZPLeqCp70c78KyKzQ8ET28iod0wjKOiCWSKG94X15tUVaKyRUW9xQtUINv34Tp/Zi+VbFTCn/ZzJR2k4iWMm7b9ZsxYO2NFThE3XFDUMIa0dSB3RD5XI/5h+Ze2LeBpZApw2HdDH5QzJlTaLyrbS+SVRgq5pE+co6sekOIMwXyLRM7HzNDDh7rkLthkX+W/rMWZMo7g4jdGV6KEroBHTlEMzedZVyVZ+VoYhMpu3Rti8raKDpCD9IfsEvf4Hf3We+ntEexOJfSD+HHnfUl1ZfudV3D9nz92a7bEOoukaOCo31DsJHoMZ6f6VX4BBP+0N/+KtquvRARGl7vmF/WkVuVaXlo6B1QO9ca96g2qrUjFSwixNLEbb+VFRqk8utHp2mTS5FcQNnVBhE6wqQa13QPvNTUNxanBQGMdM4wVvoZpbf+qBm424+UKxbNGh6uHXf+z16iGP5q60+CvGKex3DXD6+1ngvklYU7pNzPZKN0caMPgDOUdiwWXCWjc6I317Z3P8/3mL+SvUuobSQVxvmS3euz3ep/1PoqbLiINvDK0NiNy4/fPW5qNmRttbRhGt1GryPgPbVU9KmT8oWJPafCd/fFEu9DZRW2vHF3neEnz7HA6NARSSt3viV6Dct2Hz42kOT7VfHkcsNy7PgzhdNXtshtD/+nUqkQYwFh6/hdniZE6dTsaYEvXbabS60rDBMfpC0zv447PBee5EREuPGCbayOUe8ddeb0aiz/uk3cSKubQSOj3/jAx8/f8sB912nyVukCfgvvd7nvwwmd7H45upsZeIkWg3kQC1DRBdRIQNtoABbyyVlyKzY4dP3iOWAisDEjQ7qRFAgrG6QguXHJDUFTHHglel++/FAnRtE9weRWVjb04CQKbYwa0ZmNaAqZDGojlRahY3sG5A6X1HKhaoxG7lLCSBNgSirnml0RQ0kyPuFiBpBZk9tr3wDjk8G1h9zryFgOiy9drVBBizQIAt6hGqKPj2xUxq4FTvq0jHE1b6NqK0kSD0dwGk6iaL40iaV3I1jVBYj2gYZIG2GTrI7ny7RqICYz/Ty2qEmZFQBWg1Csvt5wpvA/4+g1GeksPbN6lMJmsJZy2789YpQviYmFPpENyjESa4dgnMzx2ugL5av2tDsfOriEpK3xVsAx8a/rA3nu3t7g2d4rVQdNFT+G4Jpb+CujoOe5i2qDUT8D4kH6k9JdpyrAAAAAElFTkSuQmCC;movable=0;resizable=0;rotatable=0;deletable=0;editable=0;locked=1;connectable=0;" parent="e7LcBreegsllCSHFEV6Y-51" vertex="1">
          <mxGeometry x="1071.1699999999998" y="37.5" width="69.89" height="32" as="geometry" />
        </mxCell>
        <mxCell id="nvV4u8w8GEPqKtK5y-YX-139" value="" style="shape=image;verticalLabelPosition=bottom;labelBackgroundColor=default;verticalAlign=top;aspect=fixed;imageAspect=0;image=data:image/png,iVBORw0KGgoAAAANSUhEUgAAAY0AAAB/CAMAAAAkVG5FAAABYlBMVEX///8YHB8RoGsAAAAXk40VmIAXlIoWlYgYkZIUmX0Vl4IOExf7+/sYkpAWloZRU1Qfgrqys7Qdhq8ehbIVmX4ZkJUggL4ehLUbi6Idh6yen6AciKoggMBaXV4Zj5cfgby9vr4hfsQajZ0jedEACQ4ifMkjes9AQ0Xp6ekciaYkd9YhfcYlddomc+ATm3h+f4Di4uLo8vYmdN0SnnAmcuMAmmBGsYcAmXGvy992eHmxxfSwyeSuz9Nou5+sra4iJimNjo/Ly8ze8Omw28lLq5M2OTvV1tbC3OpKTE5pa2xRl8FRmbkocOnO6d4AlVdZt5GFyKyi1cDW7eU1q31nuaGVy75csqB8vrS63NiWycUzpYJGpKGo2MQ0m53L5OZjrrGNwMlCnK5/t8hRpK5+u79xrchZs5uDxLLY6PJgoM6Vvd0+jMoxlqTK3fB+rd5vsb9jmuBQlMV4qN06o5tMjN4TaOlh8uYbAAAPkklEQVR4nO2d+18TRxeHExbQkq0UFIsomIQNhItCBKSpXAIIkhZaq/ZmK9JCW4uite/7/v/vXpOZM3PmsrvJErLfX/iQzO5s5smZc+bMJZlMq3TYsjun0tb6N9+aST9DKk/mw5WelZ7tpB8jlaNnPa5WdpJ+kFSZzM5Kj4/jadKPkuppAMPG8TB1HonKcRmkniX9QN2sZz1AK78m/Ujdq50VSCN1HonpKQvDcR5pqJuAzG95MBylA/O2a/s5BqNn5bukH67bdIiycHCsp6FuO/WdCIaN43nqPNonrv9OnUcy2pbDSJ1H27Tes6SAI3UebdGznqUlFRyp82iHvl1aUsLR05Mm2Vuuw6UlVRxpnqTlermkgSOdoW2tdlZXVzVwPE+T7K3U6qoWjtR5tFLfEzSUYPR8kw4EW6Y/X7x4sd6QSqCbDgPbpUM5jDSsap9+ldFIYbRTTyU00gi3rVpPO6qkxPmmmw/FONIAt1X6/jGhl+vei9uSwEozd7hVXSBV3cMKLgBVx6J8tM7T9ieO7rtyRh0vvJcPxQn2h3qVDBkWKWMIKVejy1lGdjHSh+s4/fDJjRtNHjYQfyixE6frGDKypDAaebpYNmttRfx0HabDG30ejSYO3yk8FVrHitZgXI1GOQdgGF3WT2UG+voYHH5Di2cDtfoqNRrTgIZRjfzxOks/9w0MMDjuez7aDqwEOOKnsQD6KWuwy8Y15oADw8FB+Y6XXjNsi5KIsdMAZbK5zS7z4JkfBwY8HsA6/vTePhTgiJtGuds9eGb72rWBhnVQOP7yCuz0oDjiprELnUa3efDMD9c8HJ7vuEEOPPw9G3+hOGKmUQWmYdRj+YQdpJ+uXPFx9LE4fvLKrGM44qWxAZ3Gfpd58Eym36VxbeAazzrue3Pf5kO+71iJlcYihNFtY3A7uu0PcDRcOYnjZcUttc2dntXcXyOhYW5Cp5GP60N2iir9/f1C63jslTvkTJfrrgCV0Khb3e7BMz/297o4rqA4/ASiE1jROLSnxcU0xuCwr+s8eOaot7dXZh1+nPsXxKE9vSGksQedxrTA8Ba38htjXG3k98rcugfHCQ1u8V4dH6+ObYnMfTFfq1Pl635dVfo2Wq1C6JcGDYF1+M2+TnZWYRZGi2gwTsNCPXh5bDpr4LI2xzkjxjEjR8j3SPSLtizD2KwjFZtD+znDsqjyxq5XeJp+WbtlPK19+qmPg3TlDA4vgWgSa6ZDrfsU0RiHTiOP3aWWNWCWFyhnTDM86H7QuztMiflfA6PGqza/y6s2l3VrAplO/aZxZH7qyMbR9B0uECZn5dnB9vMAR7g5cQEN6DT4LeKozm1ChgeMAFga5jh2J96Ys4Z8BXLGRiYmGqdXXRiNzgoLdIME4jN/IWLIcxVwGlvQg6NdL//7zGlRgIOhUZ62sGs50RxMZpKFa/HQqFy9ejWwjqbvuMbD4ScQd1wYSyEXfKI0ysBp5HaxfpCZF8QbiZ51BzS2FndxGPb7oH4zK+gcjWo8tvHaw9FL4+Bahx9YfWfTCH2kAkpjEDoNzIObMKuIK7dPXUnTsBZg0AAeYIOutyb8EhjVafqFcM1jvvKMo1fBOr73LlmPsOkPowE/K+7BBR0G20aUJweOSRYH0D0lE/DB4uD/kO3j9FWq1uHFuWaERVQIDeg0cA+eGVQ2DTh6hGGCRHSQCp9QprANdDRC4OhtWgcvsoq8eYZPowy+WrgHZ9KKGo2iScOghpA1kY+RVKykypH3d22EcOW9ws7qZdSNsJBG3n11H3jwTbwnhBl3sSzSj+vSIK81dUzSkW7DHBWLPo7TEd939HJ9Rx+B43HE2QZIY8Msl00YsqIe3FZV6ztKjS51aZBOx6SuzXHG/4CWZrusFYvFCS9X7gZWaoHu6rpmNUDMCgR3JSFohjx+vUmZkcHJR1EBsEUu/eGNxfFL6QJUCi1XLy9ClSNFuMdFh8aJ/9+rwJX3sr5jgLKOIM4NKYWIyFgQXF/epIrKaFAxri4N0q6oDtLiPWEUGh+Knl57/1Yc19Horhzr6EetI9KydDkNa190Pe3E5TQ2iXei0KCcuMVbbBeeRuW3UZ9G8dh/JcCBjDtI64iy71KBhtAz7enRyJLxQBQaC62jURkdbdAornmvHY2MqFrH/QiBlZSGyINnmAaT0sgSJaLQGCfbOlYaT0ZHSRx+YPVzAwcnsqJ9x8vwgZWMhlUTX7+hSSNHhKkRaJjTraJxPDNK4wgCK9I4YEqX7qweq9bFSG4b3Gm7hmqaNKyYaFDBQ4w0fp/xaTRwvPPfeSWyDgpHMFGuLymN3K7wenpILKdBDhqi0KCqjY2G+dvtGQZHEOeONCIrmXUECURtyb24MMClvWkbadAGFxONyowDg8Fx6r87Ajsr1HcEKxB1pTLeEC2CrurSyDffuWg03ty2xcMRBFYTPN9xhbEOm8dquASiSj4czvOQSohGuQU0nty6heEIEogMDmgdfQ1XHirOVaFhDeLX15OhsRg/jd+Hb+E4/MDqlOmsSB6UdYSKcyENi5NwE60wTIjGXuw0/rju0EBx+G37mouDtQ4bx5+yGjkCNKyFoaGhPNzmBye0CWnTQBelJEqj8vX14WERjkYCUWgd5PanMAlE7vzGIsyS4xMc2jSI2e3ke6rKE1/D1687OPzOaoaDo5FAlFpHA4d+ApE/98fMPKALcLVpEJ1e8jS+uvuZo88//7xJA7OOY++SIz4OnnXc104gIvPicJkhuq1fO6a6SDTO7noobBgODsI6KByjVJz7E46D8R26gRVCA06Mo9lDbRoXqKf64mZgGZ5xoNYxSsW5x3LrCHD4O22Uha3gYZas5aa51ydEI47xxpubd+82cahYRyOBqIxDM4GIrm5jlnPyMyTaNOKJqWKgYX5m0yBwCH3HKJVAPBnh5qx4OPQSiPg6XGYJIXd6PCEaMWRG/r7j0IA4xNbhx7mVCXXr0Eog4jTYhVI5TltrZw3zzXcSpXFWuHOTh0NsHUECcULdOnTiXI0dA9w1btoZ9TxWQXsz6udzd+7wcZDWcZvB0UwgKluHRpyrs5uGlyFJan6Dei59Gm8KhTsiHLh1NBOIitahE+eKaDCnUnEyJKBF5XN/MdHYjTQTa74tSHDgviNIICpbh0YCUbgLkw1zmU0cuvPicc3E7kei8X6uIMOBWse7IIHo4BhRsg7lOFe8QxmeMcJmSJJaM1KPQuOsVChIcaC+ww+szFfqnZVqAlGye5/ZJAH3tGiubrsQ66nOS3Nz6jhmGOv44N2mMqFuHYpxroQG3DEOVpnbvkXPi1NrHqLQoK7VW/lZmbNpaOBgrePYu5EbWCniUJsol536woS5YAd/mXKnxl6ZEVUDtUEpCg36rnW2WhOl8bbk0FDEcZvrO3xPvqZmHQ4PtcBKeiISs08CZEioRX/cHfzk+9RiuSg06B5SZ8fA+6mSDg6edZwG9zqmcKALrdxxh0pgJaVRZvZn0M22oLd/g7w2Cg1TczNNg8ajyVJJGwftO941G/ZUDYfDQyWwkp/dxoa5m2X8BhJRyZUoNIBNyuVfdj45VeLgkOasyN7qiPhSnChbh0oCUeFcQzbMJTv/sk6T0Gn5SDQ0N0b5NCqlqSkuDg3r+EA+hh1YQRzYujeFwEqBBrsXmNohC4+wEomOjyPR0Nz96dP4Z3IKwaFuHbQDOBLjIGdn5YGVynm4nDCXyG9obRWmPkkkGlrfgqxP4/2sSyOUdfiufGYNPKQODtkKRKWzotkwd5fo/9WbBQwdo9FgvyNSGo/mJz0a+tbRyJJ8YJ5yjY+jn4PjE8nMrNo56vuwryIzJPBEEhwGSKtEoyE52oJD483spKNwOALr4LTnqToOSWCl+BsDbJhLfM33dpXaxYJnt0akgZ6IhNAwpzwaIXF4PGA/5eq1Eg53N5p4BaLi72+wcSy5SalcNaS9Vc4Yh+OfqDQy+U11HrYHn5/VwEEvJbnl4/iN2zqVEzmOYNwhTCAO0QfXob9NU4cH3BlUhmSrvmnAI+2aZ+FZlmEMbjD35J6kR9OQPFu5totWC2l8+WB2VhHH3eZKEt82gr4K6fedOFexsxLGufn9QVL7bJN4Mgeh9umJwPLW2EK1zpQaHByvVxdqG2VOYmCDqps9aS+zRRXgPpu5t2FXO86pdxPQmJ/1JMdx86yCCWvGIwUcgXWI4lyTlnJBpKxaKW7hMAUE1cKs4fw8QUOE4+bfgoowrQlwwGF51LNhOlEsDUXreKu5QNDTscQ6iJzVja47iZ5LQ8063oSr71TdOsJvYe5Y0TQ2XRqYdRDTT4UvQtbnJBBVrSP0FuaOFZeGz0NgHe/di82/P9r6qqmvG0JpVd6pW0fXuQ6axm5mnjQO1Do+en26tywUDDz8SBftydzASoSjaR1ta4WLIprGdOaBHIcNxGvqM8GofBgbdPiBlYp1XFLHYdbg79cGqlHjjdx45kGAYx7HUTp373peECZJvkYf57ioZh1hz1q44Cpnwe/XNkVFVNaCTUOGo1Q6c29qvi2Ic1a/o89zWgzMQ2gdIY9auOgqgxE3JmMjc0+O41//rmcFYQpxeBiPu07QzooIrfouqROH63RQGnsuDTGOQsMhfCyIUojDAk/uBVYy62hP47Rfi7Ijpn2/kcnck+GYOm/cNVjCjnZWt9HhdGVCbh0/tKVpktCWysyjMxtzT4Jj8oy465k4wT48jHvyo2KR5BHgIGZnB35ufbMkJYUlRO5Bmcv3SB4Mjsl/yZt6jtyfLOfiwD35WpFrHc1h+cAldeKupGt5LHefw/Iybh02jwLd95zPyXA8QR/Ii3MZ62j6jlBpyU6RZILc8JZULC8H1sHFAf3yeykOPLv4gbCOEY51tLIxkhf+S0XOb3DVvELLIhyzj+A9K835DgQH7snNkyLqy20aP7asIS6EzGnkt9Ry0wtDQZstEzig75h9z9700ZwMxx/oA1XesdbR7K0us9twpTB/s7zMWEcja/UP74KPTeu4yceBe3I7sOL7codG5J/puAQ6WEatY5LrVitz0s4K9+RrZF8FrKNlH7GDdHDAsQ4Xx/w5/4ozOQ48OjpBreM/LfqAHaWDA8Q65r9ErjgvFWQ4BBkSigYR6fZfcieupgM+jvkHXKfh6Kw0R6yZ5viO68IReTHgQSet+i+9E1fRAYLjv2gE8K+/dxa3DjyXe1wkcBA7mW0clzSBq6cDLo4Hs3jX/7axeAGxDonb4FpHb28rPlzH6X+ODg5IKA4VxINnnH1Q1AKGAAiR1RUMOBrHIU5AHL+04sN1nL7kCoeRqTxi9AUt3DQqa6iO0Iu6SP8HZVM8P8ZMuJcAAAAASUVORK5CYII=;movable=0;resizable=0;rotatable=0;deletable=0;editable=0;locked=1;connectable=0;" parent="e7LcBreegsllCSHFEV6Y-51" vertex="1">
          <mxGeometry x="1071.1699999999998" y="507" width="84.4" height="27" as="geometry" />
        </mxCell>
        <mxCell id="nvV4u8w8GEPqKtK5y-YX-144" value="" style="group;movable=0;resizable=0;rotatable=0;deletable=0;editable=0;locked=1;connectable=0;" parent="e7LcBreegsllCSHFEV6Y-51" vertex="1" connectable="0">
          <mxGeometry x="424.5" y="252" width="88.75" height="65" as="geometry" />
        </mxCell>
        <mxCell id="nvV4u8w8GEPqKtK5y-YX-52" value="Facade Product" style="rounded=0;whiteSpace=wrap;html=1;hachureGap=4;fontFamily=Architects Daughter;fontSource=https%3A%2F%2Ffonts.googleapis.com%2Fcss%3Ffamily%3DArchitects%2BDaughter;rotation=0;movable=0;resizable=0;rotatable=0;deletable=0;editable=0;locked=1;connectable=0;" parent="nvV4u8w8GEPqKtK5y-YX-144" vertex="1">
          <mxGeometry width="67.5" height="65" as="geometry" />
        </mxCell>
        <mxCell id="nvV4u8w8GEPqKtK5y-YX-64" value="" style="aspect=fixed;html=1;dashed=0;whitespace=wrap;verticalLabelPosition=bottom;verticalAlign=top;fillColor=#2875E2;strokeColor=#ffffff;points=[[0.005,0.63,0],[0.1,0.2,0],[0.9,0.2,0],[0.5,0,0],[0.995,0.63,0],[0.72,0.99,0],[0.5,1,0],[0.28,0.99,0]];shape=mxgraph.kubernetes.icon2;kubernetesLabel=1;prIcon=api;hachureGap=4;fontFamily=Architects Daughter;fontSource=https%3A%2F%2Ffonts.googleapis.com%2Fcss%3Ffamily%3DArchitects%2BDaughter;movable=0;resizable=0;rotatable=0;deletable=0;editable=0;locked=1;connectable=0;" parent="nvV4u8w8GEPqKtK5y-YX-144" vertex="1">
          <mxGeometry x="57.5" y="17.5" width="31.25" height="30" as="geometry" />
        </mxCell>
        <mxCell id="nvV4u8w8GEPqKtK5y-YX-145" value="" style="group;movable=0;resizable=0;rotatable=0;deletable=0;editable=0;locked=1;connectable=0;" parent="e7LcBreegsllCSHFEV6Y-51" vertex="1" connectable="0">
          <mxGeometry x="424.5" y="379.5" width="88.75" height="65" as="geometry" />
        </mxCell>
        <mxCell id="nvV4u8w8GEPqKtK5y-YX-53" value="Facade Product" style="rounded=0;whiteSpace=wrap;html=1;hachureGap=4;fontFamily=Architects Daughter;fontSource=https%3A%2F%2Ffonts.googleapis.com%2Fcss%3Ffamily%3DArchitects%2BDaughter;rotation=0;movable=0;resizable=0;rotatable=0;deletable=0;editable=0;locked=1;connectable=0;" parent="nvV4u8w8GEPqKtK5y-YX-145" vertex="1">
          <mxGeometry width="67.5" height="65" as="geometry" />
        </mxCell>
        <mxCell id="nvV4u8w8GEPqKtK5y-YX-65" value="" style="aspect=fixed;html=1;dashed=0;whitespace=wrap;verticalLabelPosition=bottom;verticalAlign=top;fillColor=#2875E2;strokeColor=#ffffff;points=[[0.005,0.63,0],[0.1,0.2,0],[0.9,0.2,0],[0.5,0,0],[0.995,0.63,0],[0.72,0.99,0],[0.5,1,0],[0.28,0.99,0]];shape=mxgraph.kubernetes.icon2;kubernetesLabel=1;prIcon=api;hachureGap=4;fontFamily=Architects Daughter;fontSource=https%3A%2F%2Ffonts.googleapis.com%2Fcss%3Ffamily%3DArchitects%2BDaughter;movable=0;resizable=0;rotatable=0;deletable=0;editable=0;locked=1;connectable=0;" parent="nvV4u8w8GEPqKtK5y-YX-145" vertex="1">
          <mxGeometry x="57.5" y="15" width="31.25" height="30" as="geometry" />
        </mxCell>
        <mxCell id="nvV4u8w8GEPqKtK5y-YX-146" value="" style="group;movable=0;resizable=0;rotatable=0;deletable=0;editable=0;locked=1;connectable=0;" parent="e7LcBreegsllCSHFEV6Y-51" vertex="1" connectable="0">
          <mxGeometry x="432.4512149532709" y="462.57000000000016" width="70.79878504672911" height="30.004615384615363" as="geometry" />
        </mxCell>
        <mxCell id="nvV4u8w8GEPqKtK5y-YX-61" value="&lt;font style=&quot;font-size: 31px;&quot;&gt;(...)&lt;/font&gt;" style="text;html=1;align=center;verticalAlign=middle;whiteSpace=wrap;rounded=0;fontFamily=Architects Daughter;fontSource=https%3A%2F%2Ffonts.googleapis.com%2Fcss%3Ffamily%3DArchitects%2BDaughter;movable=0;resizable=0;rotatable=0;deletable=0;editable=0;locked=1;connectable=0;" parent="nvV4u8w8GEPqKtK5y-YX-146" vertex="1">
          <mxGeometry y="6.9276923076922685" width="51.58878504672897" height="23.076923076923073" as="geometry" />
        </mxCell>
        <mxCell id="nvV4u8w8GEPqKtK5y-YX-76" value="" style="aspect=fixed;html=1;dashed=0;whitespace=wrap;verticalLabelPosition=bottom;verticalAlign=top;fillColor=#2875E2;strokeColor=#ffffff;points=[[0.005,0.63,0],[0.1,0.2,0],[0.9,0.2,0],[0.5,0,0],[0.995,0.63,0],[0.72,0.99,0],[0.5,1,0],[0.28,0.99,0]];shape=mxgraph.kubernetes.icon2;kubernetesLabel=1;prIcon=api;hachureGap=4;fontFamily=Architects Daughter;fontSource=https%3A%2F%2Ffonts.googleapis.com%2Fcss%3Ffamily%3DArchitects%2BDaughter;movable=0;resizable=0;rotatable=0;deletable=0;editable=0;locked=1;connectable=0;" parent="nvV4u8w8GEPqKtK5y-YX-146" vertex="1">
          <mxGeometry x="39.54878504672911" width="31.25" height="30" as="geometry" />
        </mxCell>
        <mxCell id="nvV4u8w8GEPqKtK5y-YX-147" value="" style="group;movable=0;resizable=0;rotatable=0;deletable=0;editable=0;locked=1;connectable=0;" parent="e7LcBreegsllCSHFEV6Y-51" vertex="1" connectable="0">
          <mxGeometry x="422" y="519.5" width="91.25" height="65" as="geometry" />
        </mxCell>
        <mxCell id="nvV4u8w8GEPqKtK5y-YX-54" value="Facade" style="rounded=0;whiteSpace=wrap;html=1;hachureGap=4;fontFamily=Architects Daughter;fontSource=https%3A%2F%2Ffonts.googleapis.com%2Fcss%3Ffamily%3DArchitects%2BDaughter;rotation=0;movable=0;resizable=0;rotatable=0;deletable=0;editable=0;locked=1;connectable=0;" parent="nvV4u8w8GEPqKtK5y-YX-147" vertex="1">
          <mxGeometry width="70" height="65" as="geometry" />
        </mxCell>
        <mxCell id="nvV4u8w8GEPqKtK5y-YX-66" value="" style="aspect=fixed;html=1;dashed=0;whitespace=wrap;verticalLabelPosition=bottom;verticalAlign=top;fillColor=#2875E2;strokeColor=#ffffff;points=[[0.005,0.63,0],[0.1,0.2,0],[0.9,0.2,0],[0.5,0,0],[0.995,0.63,0],[0.72,0.99,0],[0.5,1,0],[0.28,0.99,0]];shape=mxgraph.kubernetes.icon2;kubernetesLabel=1;prIcon=api;hachureGap=4;fontFamily=Architects Daughter;fontSource=https%3A%2F%2Ffonts.googleapis.com%2Fcss%3Ffamily%3DArchitects%2BDaughter;movable=0;resizable=0;rotatable=0;deletable=0;editable=0;locked=1;connectable=0;" parent="nvV4u8w8GEPqKtK5y-YX-147" vertex="1">
          <mxGeometry x="60" y="15" width="31.25" height="30" as="geometry" />
        </mxCell>
        <mxCell id="nvV4u8w8GEPqKtK5y-YX-149" value="&lt;h1&gt;Architecture&lt;/h1&gt;" style="text;html=1;align=center;verticalAlign=middle;whiteSpace=wrap;rounded=0;fontFamily=Architects Daughter;fontSource=https%3A%2F%2Ffonts.googleapis.com%2Fcss%3Ffamily%3DArchitects%2BDaughter;fontSize=11;fontColor=#333333;labelBackgroundColor=default;fillColor=#f5f5f5;strokeColor=none;movable=0;resizable=0;rotatable=0;deletable=0;editable=0;locked=1;connectable=0;" parent="e7LcBreegsllCSHFEV6Y-51" vertex="1">
          <mxGeometry x="9" y="17" width="150" height="30" as="geometry" />
        </mxCell>
        <mxCell id="nvV4u8w8GEPqKtK5y-YX-152" value="Frontend" style="rounded=0;whiteSpace=wrap;html=1;hachureGap=4;fontFamily=Architects Daughter;fontSource=https%3A%2F%2Ffonts.googleapis.com%2Fcss%3Ffamily%3DArchitects%2BDaughter;fontSize=11;labelBackgroundColor=none;rotation=90;fillColor=#f8cecc;strokeColor=#b85450;movable=0;resizable=0;rotatable=0;deletable=0;editable=0;locked=1;connectable=0;" parent="e7LcBreegsllCSHFEV6Y-51" vertex="1">
          <mxGeometry x="1540.68" y="355.81999999999994" width="610.88" height="79.75" as="geometry" />
        </mxCell>
        <mxCell id="nvV4u8w8GEPqKtK5y-YX-153" value="" style="shape=image;verticalLabelPosition=bottom;labelBackgroundColor=default;verticalAlign=top;aspect=fixed;imageAspect=0;image=data:image/png,iVBORw0KGgoAAAANSUhEUgAAAOEAAADhCAMAAAAJbSJIAAAAYFBMVEX///9h2vtX2PtV2Ptw3fv6/v994PvC7/3M8f33/f/z/P/U9P5l2/tr3Pvk+P7g9/637f2V5fzr+v7F8P2L4/ye5/yo6f2a5vyP5Pyk6PyF4fx43/u77v2w6/3T8/7K8v0b8G1lAAAU8UlEQVR4nO1d6YKquBJuEhbZFzcEbd//La+QVHYgKJi5M10/zuluFVOkUutXxc/PH/3Rf4iaMi3L5OPLJGWals0G69mUgvTmY0IovP2+y2byPPf0Mri/lJsu8TO6+xh5jBD2Tsd49UWSqEPyZfrnDmt9h8peWBclnJ3XCVpxzQxX6f4R0lphbWVkC9rC+hplh3X+xoscdly5Jd3MDI7Lu9ptQXGavIaH7zuvf5EuxnsPPKJHsHiF+GbeP7jG8QtczNBx+u6T9eXpwhUib46/4RJOdWrDGUQo88PQzz1lR3A7p1abUL5FiF4mQ/wq2dfYMVDH1oHqdOQkaA5nyXZ4KJvexghJtwNn9bEYLxOXZ36By5e4MVDKNkDiIkhrmceb+ePxSXoX7p7idhfMCCF3NiOE1eWqF5PcxN1BvcnLKSULiE/aeQMJQed9lr9MJZ65yclZkkBdUiU7ijuTPsnh5c+93ffoTFnAkfHlohN4QJXyai2+mJv9MzgFyPwFu1MAC+yn3iEqEnwVX0lETw+fp6wmHNRu04VbE9zhGc8q4crWQyHXI6VgBFE+bfBKkBI3YgruTD5n8CqBFR+O66+4gfWc29PTN7mJMui3o3r2XWXObWZGWBQdoYUj9iAfnrI3OxOogQX3PwiFHRsEUlCiyFuIP0BM/c1WvYIK4HDRHt8EFtOfh8BguBQogzbDGy16Ff3CSpffGgksXjmDsno1ExxEF27NnS570lYIlIqCyRh8WHyyJu/HSyHKHkRV6YKioVR6GtkFfqBqXESJ9O5aev5NpjJol5+gAq65RN+gE12pZZpBYRFZit2ByLcTc9HRpdr6jIkvcmgbuNMT7CS8CNccp4FSwb2xUTIj0fjF7rRvTGs5LN44hZzD9t1lfkArOUyUc2gppi73cN05DKRTOJBdvjh1yOEqXSo5p4Qyq4gIOLRwfzanK1qhNGoeYLAfbJyhn6PD4IL601Z6nHvb+MJ+tNIe9zX3cWOC2Pa0/NYnZ/D+c+e/WGwMeG0uyhdPa8+75JI5bAUvdUyksEQC39BFDQrihcWke8ySglQjCody0WZQm+QktoAIeDGZydQoCulfhETbUm2K3h1sX4vckLDdPnDV4gM7wq6Gs5/9iUGel6t0OxB1UhaOyJPtV8bjdO7BLZiBAhL7m6x4LYFTM6vIG8aLdJQOXKHOJgrTFYmE7QmC/Fmzxpw1pVwtmMW5FMyqRMLmdLS4v2emZdQ18sra3OfBNXQR4nNlOuNgcmHsVVURs92dyYOAv+7EWAi5zElNzjMX9C4EhMafeTg1ndFo3NYtWFp/wjMJEh5QZJmHZRr+xLXshDEAGcidGAseXci+d5wUz8etDXO0gNMQCCO/u16itFH26mLv++5CkapqmrSqQ/+1XoS0cHCRXp/BKO9PlydHJoJBcoVVAHOM4xdzz1ufee9wZuDUy0+Pw8AmFWRHioarQ3Rth337mDeJz9dJ7VgU4qqOD9ZqCdX0Ppv0fzcezc+AKNyJM5VRN2iT9GwAhJqWN2oQTfeMfxlfsLlIWH05eop/ryp8bZLBuooOaVoWTZMkcTwa/DhOkqYpyjJNj/fa7j7h/FZ+zSj+1vkMe6+NwVnIrPnyEWLAKq/t/JldRdi/fGMnk0c+uQSi/6Iy4SUKvJzaZrmCl9UL4pe30OZ4QjMjFO5dRyzqqd1DWX+OQI5YgtsqzcmQC9zslcdzrxYcYSdXAshXUTqBxn5RWIqYA2bHcqvr9nAVCXERTJxQhE87OQBlZ/hGxoqoBRp9U+avzIJIKV3QK98h8Bj+bskZXXWnHY2XTuggLSzxArrD2o6xPRfjfUA+ouqkax/Ub7yPwUWVT4TycxrwGpvADIM8zcLBpMuzcytkRC7crw9+r5nKJD5teR4PuXr57JoSuaRZdyEvzFKFK8BoDI0iBMP0MjSuiH9rT/UZLBoBLOkqB3oSXLnQxBQQUGgNZJJlbZiyKbV0bBL1siQhfxsYfyFvIPJuknhAoA8FPm7e1khRwgwopOQghyXp16JWoO9blKTkjgrs35XDBWIK4C/wxlfWwxhKE1HRg18Vi5o8ZHR4t76FTKGHyCDOI030wTQgcurYifL1Q5Kkl7YLu/aS6vEeVzbkzhxA+jVBjCuRR5R/6MmdxYuhu+log9kiuRRYqA4cLiFMHnR/qy2cJx5H9uFgmnyG+CGdx48OowQ3n/DAIDE8njsQNqTmjhrZH0J6453UewDFgIlUcNKKKOMPTCNPvXs4nJKGGFb2Eq8YnEkVLRkZ/AUlCck8IVTwOzWZKP0V9J+Fez9BgpKZU1rgP748N1A76n5fTIlFrGTQ4EQMBQAQ9uk0YiDK15vGvxBu+5wgMMz+M4BPZLKGe5gzpwqLXAAKizYAEZdrB+vQibn8yJ/PdcEND9kWynWmaCo1rNTxAZPrdTX9waCQBeKg1ffAKAwzgbSqikKVesbkhTXqy5xkr0DDTS3ZVF4Xeecoso4Yz18yqo2yMCwH4qaoC1iQPbunstmLbhFncaFabiK2MRborFbmQT4V5Vz5Qrn3vfzqcrmChZZvmAx/xUdlJpRPtNNbqBWQ07kLGQnOuGaAlxc9ZbqNJB0gWWCSGf4GkiUkFF+yyoGE5gstEzO5Vm6f6J4rdz6dr7HNvNsCMfXD5Wd1axSYccsgL+cLUz4x286uF86EQoFlWRTCt7UGAz5nGQNxg6GWrGePoY7k4GBw269+rNsLIAYRsNz7ZFJtL1Vv1IXxk2h5sCAoWbLaCgWAJ7NVwqzQpialQ2+e1DsCoYp1ZRuO7rz/oxHbQ0vUYzK54rf30A4lzWFlKzm0g3Rxerg/h2u97+uqzwW76FK7lULGdm1HBoQmdi5t9LY9RDP20KrOxBo916bdmDdt5dLm4qI382msWmOZilsdXYC42IzAmXUnP/BLLRbNEljrYVMskrG4OSeZCfner4kt5ADR4mix8OkdUBH7tmwxSlOrNu/Gh0f1nUvfLAAc34DcCKNZFr7osVuMvwArjfmAl7dwYfwAZbOCyhaWt/B9tnkaebMNeZrZBSY+X+FbZaiYV9JnG9QOTF/zoUp2uTZZwQu5NhYSzeb4hCu9mRTmvS4erqeTNUxfN8xPUKu/RhbVHCzLl7ZMCczhu4Uc7PtdUQfhIvlU6TzBfGHsyKk57+ObOW80dWNLod3vkwbTu3Dv0cmsruD04OEWsH1QHeoVdYuhEsnqFma/JpAqRm/k2TiJ8x4QvpjuKOiZUYFCj4ux9pRB7Qlni7WndsYvDu7SEKoPx/P8Snfee2g8Mr+Q6GsW7L9dP6yk79UHYgSRL9U0P27FkIvcKLtMQLERTVnl8kptidlUgDzAZRQlEle57NltAJAOWumSCNVS+o0JKf2dwyrWeBkcZATSfTOJaXOWARloo77Eo3JZ3Eds9Syvyow8ZOlW5Wg77UNM+tn9jJ+hOrFws/mmTavYM+TVv+REgnTxUiaLu1aY4adoKSiBSSRiOoCG1EVs2iuU5trls/o34JUGQaE9ZpSNmWJThCBkJ17s6ZjPzQfU3jXQs4hrk+zW6ojmqqqZgcB7QNXJADdF/vYAxaBS99ETcIOiWvldEVoOxJQTlvymUP0OYf/8fabwBXd/KkoIJcXJImK7PBYzMKJuCop24ruMsJ7NKO2nQLR+fU/BHeDKxkYX8FFgcLDK6NxPdQIg7O88nq65ZRNzmxnMO+DBukXpik/QvP8k5fFxyqZg3sN7vPYLHULBoZ3ukhn4zMN6BVaf133DSQg7XDusvjXVLIk6bNdwgerqKPRbxGO7Be23SNNDVNn1W4x+xtfYIxQ/azOaXrvxtGVGhDLDH2x7ZhD6NnuUrpb3/1Pqj64mCTOLtROnAgzMDUFZFF3bOf33HnMvCT6BjKwtnG1GLCP2MvdxWrXDnPHP+Xzx5mXh7fkSzNh6vOZOBL4xK4MFxeHRhnPtWbOcDbz5YV2lzIgCmsDVgy5oLkVNdcXNy26fO99b08udh+2tehaJnCWhCSdnA73lCE6nWOjHz5mFAMuR84kD4VQ6ABJhH2XT3qdkMTHNIX2zMxWmK/astcGNqmFBz7QemJmLETBvbW5aNrSru1E1dwtdznwyzabxV+YOmVtVA9ZqNuPE59PIgRQfCD3rm4MyczGuzRIYxuclScdVKGfPCuDD5i7uRiBl8ynLyMQLV0EL8ndQTe43KbCc9cWLKOzA8mLvUsqaDdbfZMkryXpeGy9F99pflqoqgFVxokytZ+4Jw4TUmXvLXabAoYsHBsERWTU3cRBKjgOzyDa6NBd3ezXHQdLy7EuLsorLYV+PFV6xcX6pVQMo+N4upgyd1xhjjlzhP1hF7nAfXUzZhcmib84Rtqy+w1lwMe0aOHxzFrRlZiJy6NSAy/jePG9bjDNkz108LWglh/JMdstp3pxDFzFwvZJDaa6+dfHBJYfXVefw5W2LQOLc1guLHErpbY0u1Z5vsQhapbTCr9icqlW2uFCLHJndSXQ5ovW45rtTTycrZ3rds162JYgtbCrZavvrSFZoFPC8Xcxkb2yjpx/5IVaCRrVQUpBsc/JcYOuiglCEe3nbIruLPYNsCK2TieWWoZuAxibNG+Jz15YeS8ZGnGy26jV0s3L7RR1DuxmF5NTcww8HgnSAkyfLMfUx260iNXaBajkIf5yNbWHmlKPSDFT3ZrRAIzwjQJyVIz6kbLouw28i3mE+mw1Ba9SkvRAfF4tCcavF55BqmHZOrLbhqAgM6ZeJNrqyF1vtFDmTcLnmZ+XyL3BWyGchnwkO3EhAGUNvvdSDgc6GS/ABYK4mJXM1oo13aa4SnN44rioVkVUI3VS7yh/U5myOsNA9KT0kPvg9yc0VE/YkkbraEK5T8bilLNqyaybdh7gqQS1pMQiK5zVXnq0+rWvlyTYI++cnGUAfp0Jjprst/BFhd8OD7fvez1T4EJ5otSFUKKjcAWkyXkZ8GrSLjD4jdfiOStPtUkCPpWngm0wO/IBMgR/nz7MYT6k1AijXcJEplSid3ALrkb9pP83j+sk621PjG3lEaMVI4+cUgPzzrqZNSD9KL61YrWs9TvUpvoMa3geSv56SS86hiQjh/vaG+isuvjKAFd2cPRNBp6Cs6j7Pssw/Xd6HuxZVh/CIKMYYh/d/EH9bUpMeo+h4cJK1+KM/+qM/+qM/+qM/+v+kru97n1Ge5a9/+66u0o+H2f9TSH2sBQse0PVf4jdqz7QXIxvXi9uEpjm0xqXtREH0og3CK5/ul9DL8w9hMR6es7BBmnHksDtfr+cX3c7na33qepaycCmoY2FxIw6RkvAMkiOknpA7dbMph4acPMBa3aUy9+YQsNquHtP7BQ4p9NIJjmek/TmkcCFn6nR/DmmXwBceW886MiUiHH6u6WY4JKhIAx4qKO7ntuva21zaNEmrc93W19vjWczUbop73WdD+/PpIjyiM4jjgIBV2+tA9QeMznBIcHta00tz8YljMPzbTdRu01PGBklg5NcTwnbouIuBsA9lrHTw/6EFebzEB1X+GQ5JL75iLOOrXHwwIp6KUHusbGdCOoTa9C2CqNKmpe7EIenwlfHaT724onffmcZgIt13MI2Qxtdvcki+R1oZ6/cZqg5QZFHKYwCjGQcneHwCjNqcAIPWh/flbOTPWEyshAeb7ymlpIAv6tIbXTs+3dOyPFQUjyFDhQi6FOH22CRxkpQVLRwqcA1adh3fF8dx8zxRF+Pxeu12edGoacLhp4sGU9mEQypEAoKewjKEilhMwIsSVmSEmqKbkCM40t0Ql0mhQvjKd7YcYWJ8u4axKhs4HJMcBgQNJWD2aEeprFpK8jZh8UGuPZeRdCdK2DY6K0z+5tfNEeYZh+pn3qMpDgMK9RH6jwmKz1cEZoRqSNDJFJ/UJM/YBCe+icqoqodbEd6/L4clDZ+Ex3tQqdVOxAiflCRQRxSP2y/GKZ22qYREbbQlh88fwW8KguRwEgYHA41yZXqgybDapRbF8X5xzAUR+AWXd0MOvdGF8PuRfD/DzFAJz/IiqsGEzhonDC5gmHuZw9EQLWFmt+RwgpAokqMwGp9JM461XOg1P8lqeZw+teTT788hljyt0S6Yh852BrUep9Wtrm93qktGE8I4DBShNdO+HL78iFDWP6OcmR/WM2hKGeP7DDEGt/s8qMebxCFRPEtdQFtyqKUS+7ZS3UhvWjeMAEvhhBYSxAsN1n8E4rJPjx7vojHfUpdeK0oXuijDl5NF9yYa3Suuatj07MF5HcMsv6kkDiPZefkCh1weKSRYzz8Fs+hCcfl0vALyTtHLeT1ehxmeKJfeMsbWiwmKnSw+aX/Qx3UsccjS49DRXTFDw5Kvyh464hBSbOqVCYd+OEmgaWgWUjzGwUVJao3n0JGUckiwKqejcrBI8o/yqK4+kn2YMXuwuPjd/NLILKdjDLHcjKx5oIQ6icOx2Wix0Wk/z5uMu1T7A0hucbEyPEbuepvUTdKlxLgujU3aj0PoHJXltJpyvGUiqQ/NhTtJe0gYXlI1O0ZPpEVCgV9bhQO0x0bvU68ln4ZGYt+LLbT40Cino2QtqviJPWxlDsnFFlpT9+SQGm05O0Y00FKn59EcF/WKniJzFLS9DkRlvWuMTxJMskokptxkMI7CxpZmXYpVTUz8AvVZ0icsHI19M1Gk5UpWLOTw6P0tNyyqWGSyh0R2RQ5hUJoo9UmIPNSza40W5vNejAkOaVJGfkQ8SZfiWhLe9OWTicbzoueRYfKFZE1papK3pMTVCB/gj4kf9S9JACU75EvJiCgli0tSgCg7w52PjyQlJzxfENr5KhZKHmACgewvQHrZ6x5p+ntv6ZR9rsvIEvJjUUT5B3NPpjikLdbqgw4hYZ+dLlV1DiloQ+q5p63LKLseyiKN6jG28A0Sd+MlAsR6OYRS1y982eu1Dwby5UMcbsoIg5zKUT0fVCbEy8pOw7Q2xOLD7Dj4aVp/U6Q14uBe5ETIP3wwCOzatu3J6OXTIEPxHvUWLdyrHz/IKx8ObpL3va+tsqmlUhbO5Mb9QmhQ3KP7iz5aUbPxh5CL1GuXOoMAJBfEakmYdNcG5lJ2c/FZB00XqV5v0RMZwPj83V725ngO88zL+/ZymHLFD+f+FY34p8ci1CBJj/d79DTXsctH253Oz38NFPSP/rv0P02734wXP4XbAAAAAElFTkSuQmCC;movable=0;resizable=0;rotatable=0;deletable=0;editable=0;locked=1;connectable=0;" parent="e7LcBreegsllCSHFEV6Y-51" vertex="1">
          <mxGeometry x="1817.03" y="635" width="58.18" height="58.18" as="geometry" />
        </mxCell>
        <mxCell id="e7LcBreegsllCSHFEV6Y-1" value="" style="outlineConnect=0;dashed=0;verticalLabelPosition=bottom;verticalAlign=top;align=center;html=1;shape=mxgraph.aws3.lambda_function;fillColor=#5294CF;gradientColor=none;hachureGap=4;fontFamily=Architects Daughter;fontSource=https%3A%2F%2Ffonts.googleapis.com%2Fcss%3Ffamily%3DArchitects%2BDaughter;fontSize=11;fontColor=default;labelBackgroundColor=default;movable=0;resizable=0;rotatable=0;deletable=0;editable=0;locked=1;connectable=0;" parent="e7LcBreegsllCSHFEV6Y-51" vertex="1">
          <mxGeometry x="1407.31" y="116.5" width="35.24" height="37" as="geometry" />
        </mxCell>
        <mxCell id="e7LcBreegsllCSHFEV6Y-2" value="" style="outlineConnect=0;dashed=0;verticalLabelPosition=bottom;verticalAlign=top;align=center;html=1;shape=mxgraph.aws3.lambda_function;fillColor=#5294CF;gradientColor=none;hachureGap=4;fontFamily=Architects Daughter;fontSource=https%3A%2F%2Ffonts.googleapis.com%2Fcss%3Ffamily%3DArchitects%2BDaughter;fontSize=11;fontColor=default;labelBackgroundColor=default;movable=0;resizable=0;rotatable=0;deletable=0;editable=0;locked=1;connectable=0;" parent="e7LcBreegsllCSHFEV6Y-51" vertex="1">
          <mxGeometry x="1658" y="231" width="35.24" height="37" as="geometry" />
        </mxCell>
        <mxCell id="e7LcBreegsllCSHFEV6Y-33" style="edgeStyle=orthogonalEdgeStyle;shape=connector;rounded=0;hachureGap=4;orthogonalLoop=1;jettySize=auto;html=1;strokeColor=default;align=center;verticalAlign=middle;fontFamily=Architects Daughter;fontSource=https%3A%2F%2Ffonts.googleapis.com%2Fcss%3Ffamily%3DArchitects%2BDaughter;fontSize=11;fontColor=default;labelBackgroundColor=default;endArrow=classic;entryX=1;entryY=0.5;entryDx=0;entryDy=0;entryPerimeter=0;movable=0;resizable=0;rotatable=0;deletable=0;editable=0;locked=1;connectable=0;" parent="e7LcBreegsllCSHFEV6Y-51" source="e7LcBreegsllCSHFEV6Y-3" target="nvV4u8w8GEPqKtK5y-YX-116" edge="1">
          <mxGeometry relative="1" as="geometry" />
        </mxCell>
        <mxCell id="e7LcBreegsllCSHFEV6Y-3" value="" style="points=[[0,0,0],[0.25,0,0],[0.5,0,0],[0.75,0,0],[1,0,0],[0,1,0],[0.25,1,0],[0.5,1,0],[0.75,1,0],[1,1,0],[0,0.25,0],[0,0.5,0],[0,0.75,0],[1,0.25,0],[1,0.5,0],[1,0.75,0]];outlineConnect=0;fontColor=#232F3E;fillColor=#ED7100;strokeColor=#ffffff;dashed=0;verticalLabelPosition=bottom;verticalAlign=top;align=center;html=1;fontSize=12;fontStyle=0;aspect=fixed;shape=mxgraph.aws4.resourceIcon;resIcon=mxgraph.aws4.fargate;hachureGap=4;fontFamily=Architects Daughter;fontSource=https%3A%2F%2Ffonts.googleapis.com%2Fcss%3Ffamily%3DArchitects%2BDaughter;movable=0;resizable=0;rotatable=0;deletable=0;editable=0;locked=1;connectable=0;" parent="e7LcBreegsllCSHFEV6Y-51" vertex="1">
          <mxGeometry x="1612" y="507" width="40" height="40" as="geometry" />
        </mxCell>
        <mxCell id="e7LcBreegsllCSHFEV6Y-5" value="" style="aspect=fixed;html=1;dashed=0;whitespace=wrap;verticalLabelPosition=bottom;verticalAlign=top;fillColor=#2875E2;strokeColor=#ffffff;points=[[0.005,0.63,0],[0.1,0.2,0],[0.9,0.2,0],[0.5,0,0],[0.995,0.63,0],[0.72,0.99,0],[0.5,1,0],[0.28,0.99,0]];shape=mxgraph.kubernetes.icon2;prIcon=pod;hachureGap=4;fontFamily=Architects Daughter;fontSource=https%3A%2F%2Ffonts.googleapis.com%2Fcss%3Ffamily%3DArchitects%2BDaughter;movable=0;resizable=0;rotatable=0;deletable=0;editable=0;locked=1;connectable=0;" parent="e7LcBreegsllCSHFEV6Y-51" vertex="1">
          <mxGeometry x="1607" y="683.5" width="50" height="48" as="geometry" />
        </mxCell>
        <mxCell id="e7LcBreegsllCSHFEV6Y-32" style="edgeStyle=orthogonalEdgeStyle;shape=connector;rounded=0;hachureGap=4;orthogonalLoop=1;jettySize=auto;html=1;strokeColor=default;align=center;verticalAlign=middle;fontFamily=Architects Daughter;fontSource=https%3A%2F%2Ffonts.googleapis.com%2Fcss%3Ffamily%3DArchitects%2BDaughter;fontSize=11;fontColor=default;labelBackgroundColor=default;endArrow=classic;movable=0;resizable=0;rotatable=0;deletable=0;editable=0;locked=1;connectable=0;" parent="e7LcBreegsllCSHFEV6Y-51" source="e7LcBreegsllCSHFEV6Y-23" target="e7LcBreegsllCSHFEV6Y-3" edge="1">
          <mxGeometry relative="1" as="geometry" />
        </mxCell>
        <mxCell id="e7LcBreegsllCSHFEV6Y-23" value="" style="image;aspect=fixed;html=1;points=[];align=center;fontSize=12;image=img/lib/mscae/Cache_Redis_Product.svg;hachureGap=4;fontFamily=Architects Daughter;fontSource=https%3A%2F%2Ffonts.googleapis.com%2Fcss%3Ffamily%3DArchitects%2BDaughter;movable=0;resizable=0;rotatable=0;deletable=0;editable=0;locked=1;connectable=0;" parent="e7LcBreegsllCSHFEV6Y-51" vertex="1">
          <mxGeometry x="1429" y="593" width="67.86" height="57" as="geometry" />
        </mxCell>
        <mxCell id="e7LcBreegsllCSHFEV6Y-31" style="edgeStyle=orthogonalEdgeStyle;shape=connector;rounded=0;hachureGap=4;orthogonalLoop=1;jettySize=auto;html=1;strokeColor=default;align=center;verticalAlign=middle;fontFamily=Architects Daughter;fontSource=https%3A%2F%2Ffonts.googleapis.com%2Fcss%3Ffamily%3DArchitects%2BDaughter;fontSize=11;fontColor=default;labelBackgroundColor=default;endArrow=classic;movable=0;resizable=0;rotatable=0;deletable=0;editable=0;locked=1;connectable=0;" parent="e7LcBreegsllCSHFEV6Y-51" source="e7LcBreegsllCSHFEV6Y-24" target="e7LcBreegsllCSHFEV6Y-1" edge="1">
          <mxGeometry relative="1" as="geometry" />
        </mxCell>
        <mxCell id="e7LcBreegsllCSHFEV6Y-24" value="" style="image;aspect=fixed;html=1;points=[];align=center;fontSize=12;image=img/lib/mscae/Cache_Redis_Product.svg;hachureGap=4;fontFamily=Architects Daughter;fontSource=https%3A%2F%2Ffonts.googleapis.com%2Fcss%3Ffamily%3DArchitects%2BDaughter;movable=0;resizable=0;rotatable=0;deletable=0;editable=0;locked=1;connectable=0;" parent="e7LcBreegsllCSHFEV6Y-51" vertex="1">
          <mxGeometry x="1314" y="253.5" width="67.86" height="57" as="geometry" />
        </mxCell>
        <mxCell id="e7LcBreegsllCSHFEV6Y-29" style="edgeStyle=orthogonalEdgeStyle;rounded=0;hachureGap=4;orthogonalLoop=1;jettySize=auto;html=1;fontFamily=Architects Daughter;fontSource=https%3A%2F%2Ffonts.googleapis.com%2Fcss%3Ffamily%3DArchitects%2BDaughter;exitX=0.599;exitY=1.006;exitDx=0;exitDy=0;exitPerimeter=0;movable=0;resizable=0;rotatable=0;deletable=0;editable=0;locked=1;connectable=0;" parent="e7LcBreegsllCSHFEV6Y-51" source="nvV4u8w8GEPqKtK5y-YX-152" target="e7LcBreegsllCSHFEV6Y-3" edge="1">
          <mxGeometry relative="1" as="geometry" />
        </mxCell>
        <mxCell id="e7LcBreegsllCSHFEV6Y-30" style="edgeStyle=orthogonalEdgeStyle;rounded=0;hachureGap=4;orthogonalLoop=1;jettySize=auto;html=1;fontFamily=Architects Daughter;fontSource=https%3A%2F%2Ffonts.googleapis.com%2Fcss%3Ffamily%3DArchitects%2BDaughter;exitX=0.859;exitY=0.957;exitDx=0;exitDy=0;exitPerimeter=0;movable=0;resizable=0;rotatable=0;deletable=0;editable=0;locked=1;connectable=0;" parent="e7LcBreegsllCSHFEV6Y-51" source="nvV4u8w8GEPqKtK5y-YX-152" target="e7LcBreegsllCSHFEV6Y-5" edge="1">
          <mxGeometry relative="1" as="geometry" />
        </mxCell>
        <mxCell id="e7LcBreegsllCSHFEV6Y-36" value="" style="verticalLabelPosition=bottom;html=1;verticalAlign=top;align=center;strokeColor=none;fillColor=#00BEF2;shape=mxgraph.azure.code_file;pointerEvents=1;hachureGap=4;fontFamily=Architects Daughter;fontSource=https%3A%2F%2Ffonts.googleapis.com%2Fcss%3Ffamily%3DArchitects%2BDaughter;movable=0;resizable=0;rotatable=0;deletable=0;editable=0;locked=1;connectable=0;" parent="e7LcBreegsllCSHFEV6Y-51" vertex="1">
          <mxGeometry x="1332" y="103" width="20" height="25" as="geometry" />
        </mxCell>
        <mxCell id="e7LcBreegsllCSHFEV6Y-39" value="" style="group;movable=0;resizable=0;rotatable=0;deletable=0;editable=0;locked=1;connectable=0;" parent="e7LcBreegsllCSHFEV6Y-51" vertex="1" connectable="0">
          <mxGeometry x="1458.86" y="317.25" width="103" height="139.5" as="geometry" />
        </mxCell>
        <mxCell id="e7LcBreegsllCSHFEV6Y-37" value="" style="points=[];aspect=fixed;html=1;align=center;shadow=0;dashed=0;fillColor=#FF6A00;strokeColor=none;shape=mxgraph.alibaba_cloud.oos_operation_orchestration_service;hachureGap=4;fontFamily=Architects Daughter;fontSource=https%3A%2F%2Ffonts.googleapis.com%2Fcss%3Ffamily%3DArchitects%2BDaughter;fontSize=11;fontColor=default;labelBackgroundColor=default;movable=0;resizable=0;rotatable=0;deletable=0;editable=0;locked=1;connectable=0;" parent="e7LcBreegsllCSHFEV6Y-39" vertex="1">
          <mxGeometry width="95.99999999999994" height="96.57307097059469" as="geometry" />
        </mxCell>
        <mxCell id="e7LcBreegsllCSHFEV6Y-38" value="Process Orchestration Service" style="text;html=1;align=center;verticalAlign=middle;whiteSpace=wrap;rounded=0;movable=0;resizable=0;rotatable=0;deletable=0;editable=0;locked=1;connectable=0;" parent="e7LcBreegsllCSHFEV6Y-39" vertex="1">
          <mxGeometry x="17.341255803670144" y="106.6764705882353" width="68.31748839265971" height="32.82352941176471" as="geometry" />
        </mxCell>
        <mxCell id="e7LcBreegsllCSHFEV6Y-40" style="edgeStyle=orthogonalEdgeStyle;rounded=0;orthogonalLoop=1;jettySize=auto;html=1;exitX=0.073;exitY=0.946;exitDx=0;exitDy=0;exitPerimeter=0;movable=0;resizable=0;rotatable=0;deletable=0;editable=0;locked=1;connectable=0;" parent="e7LcBreegsllCSHFEV6Y-51" source="nvV4u8w8GEPqKtK5y-YX-152" target="e7LcBreegsllCSHFEV6Y-1" edge="1">
          <mxGeometry relative="1" as="geometry" />
        </mxCell>
        <mxCell id="e7LcBreegsllCSHFEV6Y-41" style="edgeStyle=orthogonalEdgeStyle;rounded=0;orthogonalLoop=1;jettySize=auto;html=1;entryX=0.506;entryY=0.019;entryDx=0;entryDy=0;entryPerimeter=0;movable=0;resizable=0;rotatable=0;deletable=0;editable=0;locked=1;connectable=0;" parent="e7LcBreegsllCSHFEV6Y-51" source="e7LcBreegsllCSHFEV6Y-1" target="e7LcBreegsllCSHFEV6Y-37" edge="1">
          <mxGeometry relative="1" as="geometry" />
        </mxCell>
        <mxCell id="e7LcBreegsllCSHFEV6Y-42" style="edgeStyle=orthogonalEdgeStyle;rounded=0;orthogonalLoop=1;jettySize=auto;html=1;entryX=0.262;entryY=0.969;entryDx=0;entryDy=0;entryPerimeter=0;movable=0;resizable=0;rotatable=0;deletable=0;editable=0;locked=1;connectable=0;" parent="e7LcBreegsllCSHFEV6Y-51" source="e7LcBreegsllCSHFEV6Y-2" target="nvV4u8w8GEPqKtK5y-YX-152" edge="1">
          <mxGeometry relative="1" as="geometry" />
        </mxCell>
        <mxCell id="e7LcBreegsllCSHFEV6Y-43" style="edgeStyle=orthogonalEdgeStyle;rounded=0;orthogonalLoop=1;jettySize=auto;html=1;entryX=0;entryY=0.5;entryDx=0;entryDy=0;entryPerimeter=0;movable=0;resizable=0;rotatable=0;deletable=0;editable=0;locked=1;connectable=0;" parent="e7LcBreegsllCSHFEV6Y-51" source="e7LcBreegsllCSHFEV6Y-37" target="e7LcBreegsllCSHFEV6Y-2" edge="1">
          <mxGeometry relative="1" as="geometry" />
        </mxCell>
        <mxCell id="e7LcBreegsllCSHFEV6Y-44" style="edgeStyle=orthogonalEdgeStyle;rounded=0;orthogonalLoop=1;jettySize=auto;html=1;startArrow=classic;startFill=1;movable=0;resizable=0;rotatable=0;deletable=0;editable=0;locked=1;connectable=0;" parent="e7LcBreegsllCSHFEV6Y-51" source="e7LcBreegsllCSHFEV6Y-37" target="e7LcBreegsllCSHFEV6Y-3" edge="1">
          <mxGeometry relative="1" as="geometry" />
        </mxCell>
        <mxCell id="e7LcBreegsllCSHFEV6Y-45" style="edgeStyle=orthogonalEdgeStyle;rounded=0;orthogonalLoop=1;jettySize=auto;html=1;entryX=1;entryY=0.5;entryDx=0;entryDy=0;entryPerimeter=0;movable=0;resizable=0;rotatable=0;deletable=0;editable=0;locked=1;connectable=0;" parent="e7LcBreegsllCSHFEV6Y-51" source="e7LcBreegsllCSHFEV6Y-5" target="nvV4u8w8GEPqKtK5y-YX-116" edge="1">
          <mxGeometry relative="1" as="geometry" />
        </mxCell>
        <mxCell id="e7LcBreegsllCSHFEV6Y-46" style="edgeStyle=orthogonalEdgeStyle;rounded=0;orthogonalLoop=1;jettySize=auto;html=1;entryX=0.5;entryY=0;entryDx=0;entryDy=0;entryPerimeter=0;movable=0;resizable=0;rotatable=0;deletable=0;editable=0;locked=1;connectable=0;" parent="e7LcBreegsllCSHFEV6Y-51" source="e7LcBreegsllCSHFEV6Y-23" target="e7LcBreegsllCSHFEV6Y-5" edge="1">
          <mxGeometry relative="1" as="geometry" />
        </mxCell>
        <mxCell id="nvV4u8w8GEPqKtK5y-YX-142" style="edgeStyle=orthogonalEdgeStyle;shape=connector;curved=1;rounded=0;hachureGap=4;orthogonalLoop=1;jettySize=auto;html=1;entryX=1;entryY=0.5;entryDx=0;entryDy=0;entryPerimeter=0;dashed=1;strokeColor=#82b366;align=center;verticalAlign=middle;fontFamily=Architects Daughter;fontSource=https%3A%2F%2Ffonts.googleapis.com%2Fcss%3Ffamily%3DArchitects%2BDaughter;fontSize=11;fontColor=default;labelBackgroundColor=default;endArrow=classic;fillColor=#d5e8d4;movable=0;resizable=0;rotatable=0;deletable=0;editable=0;locked=1;connectable=0;" parent="1" source="nvV4u8w8GEPqKtK5y-YX-108" target="nvV4u8w8GEPqKtK5y-YX-92" edge="1">
          <mxGeometry relative="1" as="geometry" />
        </mxCell>
        <mxCell id="e7LcBreegsllCSHFEV6Y-58" value="" style="edgeStyle=orthogonalEdgeStyle;shape=connector;curved=1;rounded=0;hachureGap=4;orthogonalLoop=1;jettySize=auto;html=1;strokeColor=#FF3333;strokeWidth=4;align=center;verticalAlign=middle;fontFamily=Architects Daughter;fontSource=https%3A%2F%2Ffonts.googleapis.com%2Fcss%3Ffamily%3DArchitects%2BDaughter;fontSize=11;fontColor=default;labelBackgroundColor=default;endArrow=classic;movable=0;resizable=0;rotatable=0;deletable=0;editable=0;locked=1;connectable=0;" parent="1" source="e7LcBreegsllCSHFEV6Y-53" target="e7LcBreegsllCSHFEV6Y-57" edge="1">
          <mxGeometry relative="1" as="geometry" />
        </mxCell>
        <mxCell id="e7LcBreegsllCSHFEV6Y-53" value="&lt;h1 style=&quot;margin-top: 0px;&quot;&gt;Quality Assurance&lt;/h1&gt;&lt;p&gt;&lt;/p&gt;&lt;ul&gt;&lt;li&gt;Well done discovery&lt;/li&gt;&lt;li&gt;Strong documentation of contracts and processes&lt;/li&gt;&lt;li&gt;Best development practices: Version control, Testing, CI/CD&lt;/li&gt;&lt;li&gt;Future: aim for tech stack convergence&lt;/li&gt;&lt;li&gt;Future: continuous re-evaluation of legacy platforms&lt;/li&gt;&lt;/ul&gt;&lt;div&gt;&lt;br&gt;&lt;/div&gt;&lt;p&gt;&lt;/p&gt;" style="text;html=1;whiteSpace=wrap;overflow=hidden;rounded=0;fontFamily=Architects Daughter;fontSource=https%3A%2F%2Ffonts.googleapis.com%2Fcss%3Ffamily%3DArchitects%2BDaughter;movable=0;resizable=0;rotatable=0;deletable=0;editable=0;locked=1;connectable=0;" parent="1" vertex="1">
          <mxGeometry x="3824" y="654" width="360" height="161" as="geometry" />
        </mxCell>
        <mxCell id="e7LcBreegsllCSHFEV6Y-54" style="edgeStyle=orthogonalEdgeStyle;shape=connector;curved=1;rounded=0;hachureGap=4;orthogonalLoop=1;jettySize=auto;html=1;entryX=0;entryY=0.5;entryDx=0;entryDy=0;strokeColor=#FF3333;strokeWidth=4;align=center;verticalAlign=middle;fontFamily=Architects Daughter;fontSource=https%3A%2F%2Ffonts.googleapis.com%2Fcss%3Ffamily%3DArchitects%2BDaughter;fontSize=11;fontColor=default;labelBackgroundColor=default;endArrow=classic;movable=0;resizable=0;rotatable=0;deletable=0;editable=0;locked=1;connectable=0;" parent="1" source="nvV4u8w8GEPqKtK5y-YX-151" target="e7LcBreegsllCSHFEV6Y-53" edge="1">
          <mxGeometry relative="1" as="geometry" />
        </mxCell>
        <mxCell id="e7LcBreegsllCSHFEV6Y-55" value="" style="group;movable=0;resizable=0;rotatable=0;deletable=0;editable=0;locked=1;connectable=0;" parent="1" vertex="1" connectable="0">
          <mxGeometry x="-394" y="1093" width="781" height="346" as="geometry" />
        </mxCell>
        <mxCell id="nvV4u8w8GEPqKtK5y-YX-48" value="" style="group;fillColor=#d5e8d4;strokeColor=#82b366;container=0;movable=0;resizable=0;rotatable=0;deletable=0;editable=0;locked=1;connectable=0;" parent="e7LcBreegsllCSHFEV6Y-55" vertex="1" connectable="0">
          <mxGeometry y="5" width="781" height="341" as="geometry" />
        </mxCell>
        <mxCell id="nvV4u8w8GEPqKtK5y-YX-14" value="" style="edgeStyle=orthogonalEdgeStyle;rounded=0;hachureGap=4;orthogonalLoop=1;jettySize=auto;html=1;fontFamily=Architects Daughter;fontSource=https%3A%2F%2Ffonts.googleapis.com%2Fcss%3Ffamily%3DArchitects%2BDaughter;disableMultiStroke=1;exitX=0.5;exitY=1;exitDx=0;exitDy=0;movable=0;resizable=0;rotatable=0;deletable=0;editable=0;locked=1;connectable=0;" parent="e7LcBreegsllCSHFEV6Y-55" source="nvV4u8w8GEPqKtK5y-YX-9" target="nvV4u8w8GEPqKtK5y-YX-10" edge="1">
          <mxGeometry relative="1" as="geometry">
            <Array as="points">
              <mxPoint x="376.1869158878503" y="105.61538461538461" />
              <mxPoint x="279.4579439252336" y="105.61538461538461" />
            </Array>
          </mxGeometry>
        </mxCell>
        <mxCell id="nvV4u8w8GEPqKtK5y-YX-24" value="&amp;nbsp;of type&amp;nbsp;" style="edgeLabel;html=1;align=center;verticalAlign=middle;resizable=0;points=[];hachureGap=4;fontFamily=Architects Daughter;fontSource=https%3A%2F%2Ffonts.googleapis.com%2Fcss%3Ffamily%3DArchitects%2BDaughter;movable=0;rotatable=0;deletable=0;editable=0;locked=1;connectable=0;" parent="nvV4u8w8GEPqKtK5y-YX-14" vertex="1" connectable="0">
          <mxGeometry x="0.1157" y="-3" relative="1" as="geometry">
            <mxPoint x="38" y="1" as="offset" />
          </mxGeometry>
        </mxCell>
        <mxCell id="nvV4u8w8GEPqKtK5y-YX-17" value="" style="edgeStyle=orthogonalEdgeStyle;rounded=0;hachureGap=4;orthogonalLoop=1;jettySize=auto;html=1;fontFamily=Architects Daughter;fontSource=https%3A%2F%2Ffonts.googleapis.com%2Fcss%3Ffamily%3DArchitects%2BDaughter;exitX=0.5;exitY=1;exitDx=0;exitDy=0;disableMultiStroke=1;movable=0;resizable=0;rotatable=0;deletable=0;editable=0;locked=1;connectable=0;" parent="e7LcBreegsllCSHFEV6Y-55" source="nvV4u8w8GEPqKtK5y-YX-9" target="nvV4u8w8GEPqKtK5y-YX-16" edge="1">
          <mxGeometry relative="1" as="geometry">
            <Array as="points">
              <mxPoint x="376.1869158878503" y="144.07692307692307" />
              <mxPoint x="369.7383177570093" y="144.07692307692307" />
            </Array>
          </mxGeometry>
        </mxCell>
        <mxCell id="nvV4u8w8GEPqKtK5y-YX-26" value="of type" style="edgeLabel;html=1;align=center;verticalAlign=middle;resizable=0;points=[];hachureGap=4;fontFamily=Architects Daughter;fontSource=https%3A%2F%2Ffonts.googleapis.com%2Fcss%3Ffamily%3DArchitects%2BDaughter;movable=0;rotatable=0;deletable=0;editable=0;locked=1;connectable=0;" parent="nvV4u8w8GEPqKtK5y-YX-17" vertex="1" connectable="0">
          <mxGeometry x="0.3991" relative="1" as="geometry">
            <mxPoint y="9" as="offset" />
          </mxGeometry>
        </mxCell>
        <mxCell id="nvV4u8w8GEPqKtK5y-YX-19" style="edgeStyle=orthogonalEdgeStyle;rounded=0;hachureGap=4;orthogonalLoop=1;jettySize=auto;html=1;fontFamily=Architects Daughter;fontSource=https%3A%2F%2Ffonts.googleapis.com%2Fcss%3Ffamily%3DArchitects%2BDaughter;exitX=0.5;exitY=1;exitDx=0;exitDy=0;disableMultiStroke=1;movable=0;resizable=0;rotatable=0;deletable=0;editable=0;locked=1;connectable=0;" parent="e7LcBreegsllCSHFEV6Y-55" source="nvV4u8w8GEPqKtK5y-YX-9" target="nvV4u8w8GEPqKtK5y-YX-18" edge="1">
          <mxGeometry relative="1" as="geometry">
            <Array as="points">
              <mxPoint x="376.1869158878503" y="151.76923076923075" />
              <mxPoint x="479.36448598130846" y="151.76923076923075" />
            </Array>
          </mxGeometry>
        </mxCell>
        <mxCell id="nvV4u8w8GEPqKtK5y-YX-25" value="of type&amp;nbsp;" style="edgeLabel;html=1;align=center;verticalAlign=middle;resizable=0;points=[];hachureGap=4;fontFamily=Architects Daughter;fontSource=https%3A%2F%2Ffonts.googleapis.com%2Fcss%3Ffamily%3DArchitects%2BDaughter;movable=0;rotatable=0;deletable=0;editable=0;locked=1;connectable=0;" parent="nvV4u8w8GEPqKtK5y-YX-19" vertex="1" connectable="0">
          <mxGeometry x="-0.2261" y="-1" relative="1" as="geometry">
            <mxPoint x="37" as="offset" />
          </mxGeometry>
        </mxCell>
        <mxCell id="nvV4u8w8GEPqKtK5y-YX-31" style="edgeStyle=orthogonalEdgeStyle;rounded=0;hachureGap=4;orthogonalLoop=1;jettySize=auto;html=1;entryX=0.5;entryY=0;entryDx=0;entryDy=0;fontFamily=Architects Daughter;fontSource=https%3A%2F%2Ffonts.googleapis.com%2Fcss%3Ffamily%3DArchitects%2BDaughter;exitX=0.5;exitY=1;exitDx=0;exitDy=0;movable=0;resizable=0;rotatable=0;deletable=0;editable=0;locked=1;connectable=0;" parent="e7LcBreegsllCSHFEV6Y-55" source="nvV4u8w8GEPqKtK5y-YX-9" target="nvV4u8w8GEPqKtK5y-YX-27" edge="1">
          <mxGeometry relative="1" as="geometry" />
        </mxCell>
        <mxCell id="nvV4u8w8GEPqKtK5y-YX-32" value="&amp;nbsp;of type&amp;nbsp;" style="edgeLabel;html=1;align=center;verticalAlign=middle;resizable=0;points=[];hachureGap=4;fontFamily=Architects Daughter;fontSource=https%3A%2F%2Ffonts.googleapis.com%2Fcss%3Ffamily%3DArchitects%2BDaughter;movable=0;rotatable=0;deletable=0;editable=0;locked=1;connectable=0;" parent="nvV4u8w8GEPqKtK5y-YX-31" vertex="1" connectable="0">
          <mxGeometry x="0.3541" y="-1" relative="1" as="geometry">
            <mxPoint as="offset" />
          </mxGeometry>
        </mxCell>
        <mxCell id="nvV4u8w8GEPqKtK5y-YX-9" value="Products" style="rounded=0;whiteSpace=wrap;html=1;hachureGap=4;fontFamily=Architects Daughter;fontSource=https%3A%2F%2Ffonts.googleapis.com%2Fcss%3Ffamily%3DArchitects%2BDaughter;movable=0;resizable=0;rotatable=0;deletable=0;editable=0;locked=1;connectable=0;" parent="e7LcBreegsllCSHFEV6Y-55" vertex="1">
          <mxGeometry x="336.4853271028037" y="21" width="77.38317757009345" height="46.153846153846146" as="geometry" />
        </mxCell>
        <mxCell id="nvV4u8w8GEPqKtK5y-YX-10" value="Flights" style="rounded=0;whiteSpace=wrap;html=1;hachureGap=4;fontFamily=Architects Daughter;fontSource=https%3A%2F%2Ffonts.googleapis.com%2Fcss%3Ffamily%3DArchitects%2BDaughter;movable=0;resizable=0;rotatable=0;deletable=0;editable=0;locked=1;connectable=0;" parent="e7LcBreegsllCSHFEV6Y-55" vertex="1">
          <mxGeometry x="240.766355140187" y="193.3076923076923" width="77.38317757009345" height="46.153846153846146" as="geometry" />
        </mxCell>
        <mxCell id="nvV4u8w8GEPqKtK5y-YX-16" value="Accomodations" style="rounded=0;whiteSpace=wrap;html=1;hachureGap=4;fontFamily=Architects Daughter;fontSource=https%3A%2F%2Ffonts.googleapis.com%2Fcss%3Ffamily%3DArchitects%2BDaughter;movable=0;resizable=0;rotatable=0;deletable=0;editable=0;locked=1;connectable=0;" parent="e7LcBreegsllCSHFEV6Y-55" vertex="1">
          <mxGeometry x="331.04999999999995" y="231.76999999999998" width="92.95" height="46.15" as="geometry" />
        </mxCell>
        <mxCell id="nvV4u8w8GEPqKtK5y-YX-18" value="Car Rental" style="rounded=0;whiteSpace=wrap;html=1;hachureGap=4;fontFamily=Architects Daughter;fontSource=https%3A%2F%2Ffonts.googleapis.com%2Fcss%3Ffamily%3DArchitects%2BDaughter;movable=0;resizable=0;rotatable=0;deletable=0;editable=0;locked=1;connectable=0;" parent="e7LcBreegsllCSHFEV6Y-55" vertex="1">
          <mxGeometry x="440.6728971962616" y="208.6923076923077" width="77.38317757009345" height="46.153846153846146" as="geometry" />
        </mxCell>
        <mxCell id="nvV4u8w8GEPqKtK5y-YX-23" value="&amp;nbsp;sales to&amp;nbsp;" style="edgeStyle=orthogonalEdgeStyle;rounded=0;hachureGap=4;orthogonalLoop=1;jettySize=auto;html=1;fontFamily=Architects Daughter;fontSource=https%3A%2F%2Ffonts.googleapis.com%2Fcss%3Ffamily%3DArchitects%2BDaughter;movable=0;resizable=0;rotatable=0;deletable=0;editable=0;locked=1;connectable=0;" parent="e7LcBreegsllCSHFEV6Y-55" source="nvV4u8w8GEPqKtK5y-YX-20" target="nvV4u8w8GEPqKtK5y-YX-22" edge="1">
          <mxGeometry relative="1" as="geometry" />
        </mxCell>
        <mxCell id="nvV4u8w8GEPqKtK5y-YX-41" style="edgeStyle=orthogonalEdgeStyle;rounded=0;hachureGap=4;orthogonalLoop=1;jettySize=auto;html=1;entryX=1;entryY=0.5;entryDx=0;entryDy=0;fontFamily=Architects Daughter;fontSource=https%3A%2F%2Ffonts.googleapis.com%2Fcss%3Ffamily%3DArchitects%2BDaughter;movable=0;resizable=0;rotatable=0;deletable=0;editable=0;locked=1;connectable=0;" parent="e7LcBreegsllCSHFEV6Y-55" source="nvV4u8w8GEPqKtK5y-YX-20" target="nvV4u8w8GEPqKtK5y-YX-9" edge="1">
          <mxGeometry relative="1" as="geometry" />
        </mxCell>
        <mxCell id="nvV4u8w8GEPqKtK5y-YX-42" value="&amp;nbsp;contains&amp;nbsp;" style="edgeLabel;html=1;align=center;verticalAlign=middle;resizable=0;points=[];hachureGap=4;fontFamily=Architects Daughter;fontSource=https%3A%2F%2Ffonts.googleapis.com%2Fcss%3Ffamily%3DArchitects%2BDaughter;labelBackgroundColor=default;movable=0;rotatable=0;deletable=0;editable=0;locked=1;connectable=0;" parent="nvV4u8w8GEPqKtK5y-YX-41" vertex="1" connectable="0">
          <mxGeometry x="0.0846" relative="1" as="geometry">
            <mxPoint x="7" as="offset" />
          </mxGeometry>
        </mxCell>
        <mxCell id="nvV4u8w8GEPqKtK5y-YX-20" value="Orders" style="rounded=0;whiteSpace=wrap;html=1;hachureGap=4;fontFamily=Architects Daughter;fontSource=https%3A%2F%2Ffonts.googleapis.com%2Fcss%3Ffamily%3DArchitects%2BDaughter;movable=0;resizable=0;rotatable=0;deletable=0;editable=0;locked=1;connectable=0;" parent="e7LcBreegsllCSHFEV6Y-55" vertex="1">
          <mxGeometry x="485.81308411214945" y="21" width="77.38317757009345" height="46.153846153846146" as="geometry" />
        </mxCell>
        <mxCell id="nvV4u8w8GEPqKtK5y-YX-22" value="Customers" style="rounded=0;whiteSpace=wrap;html=1;hachureGap=4;fontFamily=Architects Daughter;fontSource=https%3A%2F%2Ffonts.googleapis.com%2Fcss%3Ffamily%3DArchitects%2BDaughter;movable=0;resizable=0;rotatable=0;deletable=0;editable=0;locked=1;connectable=0;" parent="e7LcBreegsllCSHFEV6Y-55" vertex="1">
          <mxGeometry x="661.0022429906542" y="21" width="77.38317757009345" height="46.153846153846146" as="geometry" />
        </mxCell>
        <mxCell id="nvV4u8w8GEPqKtK5y-YX-28" style="edgeStyle=orthogonalEdgeStyle;rounded=0;hachureGap=4;orthogonalLoop=1;jettySize=auto;html=1;entryX=0.5;entryY=1;entryDx=0;entryDy=0;fontFamily=Architects Daughter;fontSource=https%3A%2F%2Ffonts.googleapis.com%2Fcss%3Ffamily%3DArchitects%2BDaughter;exitX=0.5;exitY=1;exitDx=0;exitDy=0;movable=0;resizable=0;rotatable=0;deletable=0;editable=0;locked=1;connectable=0;" parent="e7LcBreegsllCSHFEV6Y-55" source="nvV4u8w8GEPqKtK5y-YX-27" target="nvV4u8w8GEPqKtK5y-YX-18" edge="1">
          <mxGeometry relative="1" as="geometry" />
        </mxCell>
        <mxCell id="nvV4u8w8GEPqKtK5y-YX-33" value="&amp;nbsp;contains&amp;nbsp;" style="edgeLabel;html=1;align=center;verticalAlign=middle;resizable=0;points=[];hachureGap=4;fontFamily=Architects Daughter;fontSource=https%3A%2F%2Ffonts.googleapis.com%2Fcss%3Ffamily%3DArchitects%2BDaughter;movable=0;rotatable=0;deletable=0;editable=0;locked=1;connectable=0;" parent="nvV4u8w8GEPqKtK5y-YX-28" vertex="1" connectable="0">
          <mxGeometry x="-0.0873" y="1" relative="1" as="geometry">
            <mxPoint as="offset" />
          </mxGeometry>
        </mxCell>
        <mxCell id="nvV4u8w8GEPqKtK5y-YX-34" style="edgeStyle=orthogonalEdgeStyle;rounded=0;hachureGap=4;orthogonalLoop=1;jettySize=auto;html=1;entryX=0.5;entryY=1;entryDx=0;entryDy=0;fontFamily=Architects Daughter;fontSource=https%3A%2F%2Ffonts.googleapis.com%2Fcss%3Ffamily%3DArchitects%2BDaughter;exitX=0.5;exitY=1;exitDx=0;exitDy=0;movable=0;resizable=0;rotatable=0;deletable=0;editable=0;locked=1;connectable=0;" parent="e7LcBreegsllCSHFEV6Y-55" source="nvV4u8w8GEPqKtK5y-YX-27" target="nvV4u8w8GEPqKtK5y-YX-16" edge="1">
          <mxGeometry relative="1" as="geometry" />
        </mxCell>
        <mxCell id="nvV4u8w8GEPqKtK5y-YX-35" value="&amp;nbsp;contains&amp;nbsp;" style="edgeLabel;html=1;align=center;verticalAlign=middle;resizable=0;points=[];hachureGap=4;fontFamily=Architects Daughter;fontSource=https%3A%2F%2Ffonts.googleapis.com%2Fcss%3Ffamily%3DArchitects%2BDaughter;movable=0;rotatable=0;deletable=0;editable=0;locked=1;connectable=0;" parent="nvV4u8w8GEPqKtK5y-YX-34" vertex="1" connectable="0">
          <mxGeometry x="0.0165" y="2" relative="1" as="geometry">
            <mxPoint as="offset" />
          </mxGeometry>
        </mxCell>
        <mxCell id="nvV4u8w8GEPqKtK5y-YX-36" style="edgeStyle=orthogonalEdgeStyle;rounded=0;hachureGap=4;orthogonalLoop=1;jettySize=auto;html=1;entryX=0.5;entryY=1;entryDx=0;entryDy=0;fontFamily=Architects Daughter;fontSource=https%3A%2F%2Ffonts.googleapis.com%2Fcss%3Ffamily%3DArchitects%2BDaughter;exitX=0.5;exitY=1;exitDx=0;exitDy=0;movable=0;resizable=0;rotatable=0;deletable=0;editable=0;locked=1;connectable=0;" parent="e7LcBreegsllCSHFEV6Y-55" source="nvV4u8w8GEPqKtK5y-YX-27" target="nvV4u8w8GEPqKtK5y-YX-10" edge="1">
          <mxGeometry relative="1" as="geometry">
            <Array as="points">
              <mxPoint x="627.6822429906542" y="321" />
              <mxPoint x="279.4579439252336" y="321" />
            </Array>
          </mxGeometry>
        </mxCell>
        <mxCell id="nvV4u8w8GEPqKtK5y-YX-37" value="&amp;nbsp;contains&amp;nbsp;" style="edgeLabel;html=1;align=center;verticalAlign=middle;resizable=0;points=[];hachureGap=4;fontFamily=Architects Daughter;fontSource=https%3A%2F%2Ffonts.googleapis.com%2Fcss%3Ffamily%3DArchitects%2BDaughter;movable=0;rotatable=0;deletable=0;editable=0;locked=1;connectable=0;" parent="nvV4u8w8GEPqKtK5y-YX-36" vertex="1" connectable="0">
          <mxGeometry x="-0.2457" y="-1" relative="1" as="geometry">
            <mxPoint as="offset" />
          </mxGeometry>
        </mxCell>
        <mxCell id="nvV4u8w8GEPqKtK5y-YX-27" value="Complete travel" style="rounded=0;whiteSpace=wrap;html=1;hachureGap=4;fontFamily=Architects Daughter;fontSource=https%3A%2F%2Ffonts.googleapis.com%2Fcss%3Ffamily%3DArchitects%2BDaughter;movable=0;resizable=0;rotatable=0;deletable=0;editable=0;locked=1;connectable=0;" parent="e7LcBreegsllCSHFEV6Y-55" vertex="1">
          <mxGeometry x="588.9906542056074" y="185.61538461538464" width="77.38317757009345" height="46.153846153846146" as="geometry" />
        </mxCell>
        <mxCell id="nvV4u8w8GEPqKtK5y-YX-39" style="edgeStyle=orthogonalEdgeStyle;rounded=0;hachureGap=4;orthogonalLoop=1;jettySize=auto;html=1;fontFamily=Architects Daughter;fontSource=https%3A%2F%2Ffonts.googleapis.com%2Fcss%3Ffamily%3DArchitects%2BDaughter;movable=0;resizable=0;rotatable=0;deletable=0;editable=0;locked=1;connectable=0;" parent="e7LcBreegsllCSHFEV6Y-55" source="nvV4u8w8GEPqKtK5y-YX-38" target="nvV4u8w8GEPqKtK5y-YX-10" edge="1">
          <mxGeometry relative="1" as="geometry" />
        </mxCell>
        <mxCell id="nvV4u8w8GEPqKtK5y-YX-40" value="provides" style="edgeLabel;html=1;align=center;verticalAlign=middle;resizable=0;points=[];hachureGap=4;fontFamily=Architects Daughter;fontSource=https%3A%2F%2Ffonts.googleapis.com%2Fcss%3Ffamily%3DArchitects%2BDaughter;movable=0;rotatable=0;deletable=0;editable=0;locked=1;connectable=0;" parent="nvV4u8w8GEPqKtK5y-YX-39" vertex="1" connectable="0">
          <mxGeometry x="-0.1651" y="1" relative="1" as="geometry">
            <mxPoint y="-14" as="offset" />
          </mxGeometry>
        </mxCell>
        <mxCell id="nvV4u8w8GEPqKtK5y-YX-38" value="Sales Agency" style="rounded=0;whiteSpace=wrap;html=1;hachureGap=4;fontFamily=Architects Daughter;fontSource=https%3A%2F%2Ffonts.googleapis.com%2Fcss%3Ffamily%3DArchitects%2BDaughter;movable=0;resizable=0;rotatable=0;deletable=0;editable=0;locked=1;connectable=0;" parent="e7LcBreegsllCSHFEV6Y-55" vertex="1">
          <mxGeometry x="86" y="231.76923076923077" width="77.38317757009345" height="46.153846153846146" as="geometry" />
        </mxCell>
        <mxCell id="nvV4u8w8GEPqKtK5y-YX-43" value="&lt;font style=&quot;font-size: 31px;&quot;&gt;(...)&lt;/font&gt;" style="text;html=1;align=center;verticalAlign=middle;whiteSpace=wrap;rounded=0;fontFamily=Architects Daughter;fontSource=https%3A%2F%2Ffonts.googleapis.com%2Fcss%3Ffamily%3DArchitects%2BDaughter;movable=0;resizable=0;rotatable=0;deletable=0;editable=0;locked=1;connectable=0;" parent="e7LcBreegsllCSHFEV6Y-55" vertex="1">
          <mxGeometry x="724.4112149532709" y="193.3076923076923" width="51.58878504672897" height="23.076923076923073" as="geometry" />
        </mxCell>
        <mxCell id="nvV4u8w8GEPqKtK5y-YX-160" value="&lt;h1 style=&quot;margin-top: 0px;&quot;&gt;&lt;font style=&quot;font-size: 22px;&quot;&gt;Enterprise Data Arch.&lt;/font&gt;&lt;/h1&gt;&lt;ul style=&quot;&quot;&gt;&lt;li style=&quot;&quot;&gt;&lt;font style=&quot;font-size: 12px;&quot;&gt;adjust responsibilities&lt;/font&gt;&lt;/li&gt;&lt;li style=&quot;&quot;&gt;&lt;font style=&quot;font-size: 12px;&quot;&gt;split/merge teams&lt;/font&gt;&lt;/li&gt;&lt;li style=&quot;&quot;&gt;&lt;font style=&quot;font-size: 12px;&quot;&gt;create facade teams for legacy/third party applications&lt;/font&gt;&lt;/li&gt;&lt;/ul&gt;&lt;div&gt;&lt;br&gt;&lt;/div&gt;&lt;p&gt;&lt;/p&gt;" style="text;html=1;whiteSpace=wrap;overflow=hidden;rounded=0;fontFamily=Architects Daughter;fontSource=https%3A%2F%2Ffonts.googleapis.com%2Fcss%3Ffamily%3DArchitects%2BDaughter;fontSize=14;movable=0;resizable=0;rotatable=0;deletable=0;editable=0;locked=1;connectable=0;" parent="e7LcBreegsllCSHFEV6Y-55" vertex="1">
          <mxGeometry x="16" width="234.83" height="143" as="geometry" />
        </mxCell>
        <mxCell id="e7LcBreegsllCSHFEV6Y-60" value="" style="edgeStyle=orthogonalEdgeStyle;shape=connector;curved=1;rounded=0;hachureGap=4;orthogonalLoop=1;jettySize=auto;html=1;strokeColor=#FF3333;strokeWidth=4;align=center;verticalAlign=middle;fontFamily=Architects Daughter;fontSource=https%3A%2F%2Ffonts.googleapis.com%2Fcss%3Ffamily%3DArchitects%2BDaughter;fontSize=11;fontColor=default;labelBackgroundColor=default;endArrow=classic;movable=0;resizable=0;rotatable=0;deletable=0;editable=0;locked=1;connectable=0;" parent="1" source="e7LcBreegsllCSHFEV6Y-57" target="e7LcBreegsllCSHFEV6Y-59" edge="1">
          <mxGeometry relative="1" as="geometry" />
        </mxCell>
        <mxCell id="e7LcBreegsllCSHFEV6Y-57" value="&lt;h1 style=&quot;margin-top: 0px;&quot;&gt;Q &amp;amp; A&lt;/h1&gt;&lt;p&gt;&lt;/p&gt;" style="text;html=1;whiteSpace=wrap;overflow=hidden;rounded=0;fontFamily=Architects Daughter;fontSource=https%3A%2F%2Ffonts.googleapis.com%2Fcss%3Ffamily%3DArchitects%2BDaughter;fontSize=28;fontColor=default;labelBackgroundColor=default;movable=0;resizable=0;rotatable=0;deletable=0;editable=0;locked=1;connectable=0;" parent="1" vertex="1">
          <mxGeometry x="4589" y="1137" width="182" height="91" as="geometry" />
        </mxCell>
        <mxCell id="e7LcBreegsllCSHFEV6Y-59" value="&lt;font&gt;Thank You!&lt;/font&gt;" style="text;html=1;whiteSpace=wrap;overflow=hidden;rounded=0;fontFamily=Architects Daughter;fontSource=https%3A%2F%2Ffonts.googleapis.com%2Fcss%3Ffamily%3DArchitects%2BDaughter;fontSize=56;fontColor=default;labelBackgroundColor=default;movable=0;resizable=0;rotatable=0;deletable=0;editable=0;locked=1;connectable=0;" parent="1" vertex="1">
          <mxGeometry x="5032" y="630" width="276" height="86" as="geometry" />
        </mxCell>
      </root>
    </mxGraphModel>
  </diagram>
</mxfile>
